<?xml version="1.0" encoding="utf-8"?>
<!-- Generator: Adobe Illustrator 23.0.0, SVG Export Plug-In . SVG Version: 6.00 Build 0)  -->
<svg version="1.1" id="Layer_1" xmlns="http://www.w3.org/2000/svg" xmlns:xlink="http://www.w3.org/1999/xlink" x="0px" y="0px"
	 viewBox="0 0 61 61" style="enable-background:new 0 0 61 61;" xml:space="preserve">
<style type="text/css">
	.st0{fill:url(#SVGID_1_);}
	.st1{fill:#FFFFFF;}
</style>
<linearGradient id="SVGID_1_" gradientUnits="userSpaceOnUse" x1="0" y1="-904.4641" x2="61" y2="-904.4641" gradientTransform="matrix(1 0 0 -1 0 -873.9641)">
	<stop  offset="0" style="stop-color:#F8B6CF"/>
	<stop  offset="1" style="stop-color:#EA95B5"/>
</linearGradient>
<circle class="st0" cx="30.5" cy="30.5" r="30.5"/>
<g>
	<g>
		<g>
			<path class="st1" d="M39.3,25.1h-1.6V23c0-4.1-3.3-7.4-7.4-7.4s-7.4,3.3-7.4,7.4v0.5c0,0.3,0.2,0.5,0.5,0.5h2.1
				c0.3,0,0.5-0.2,0.5-0.5V23c0-2.3,1.9-4.2,4.2-4.2s4.2,1.9,4.2,4.2v2.1H21.3c-0.3,0-0.5,0.2-0.5,0.5v13.2c0,1.2,0.9,2.1,2.1,2.1
				h14.8c1.2,0,2.1-0.9,2.1-2.1V25.6C39.8,25.3,39.6,25.1,39.3,25.1z M31.9,36.1c0,0.1,0,0.3-0.1,0.4c-0.1,0.1-0.2,0.2-0.4,0.2h-2.1
				c-0.1,0-0.3-0.1-0.4-0.2c-0.1-0.1-0.1-0.3-0.1-0.4l0.3-3c-0.5-0.4-0.9-1-0.9-1.7c0-1.2,0.9-2.1,2.1-2.1s2.1,0.9,2.1,2.1
				c0,0.7-0.3,1.3-0.9,1.7L31.9,36.1z"/>
		</g>
	</g>
</g>
</svg>
