<?xml version="1.0" encoding="utf-8"?>
<!-- Generator: Adobe Illustrator 21.1.0, SVG Export Plug-In . SVG Version: 6.00 Build 0)  -->
<svg version="1.1" id="Layer_1" xmlns="http://www.w3.org/2000/svg" xmlns:xlink="http://www.w3.org/1999/xlink" x="0px" y="0px"
	 viewBox="0 0 91 91" style="enable-background:new 0 0 91 91;" xml:space="preserve">
<style type="text/css">
	.st0{fill:url(#SVGID_1_);}
	.st1{fill:#FFFFFF;}
	.st2{fill:url(#SVGID_2_);}
</style>
<linearGradient id="SVGID_1_" gradientUnits="userSpaceOnUse" x1="15" y1="982.4641" x2="76" y2="982.4641" gradientTransform="matrix(1 0 0 1 0 -936.9641)">
	<stop  offset="0" style="stop-color:#F8B6CF"/>
	<stop  offset="1" style="stop-color:#EA95B5"/>
</linearGradient>
<circle class="st0" cx="45.5" cy="45.5" r="30.5"/>
<g>
	<path class="st1" d="M42,52.5h-5.9L40.4,39h5.2L42,52.5z M50.5,52.5h-5.9L48.9,39h5.2L50.5,52.5z"/>
</g>
<linearGradient id="SVGID_2_" gradientUnits="userSpaceOnUse" x1="0" y1="45.5" x2="91" y2="45.5">
	<stop  offset="0" style="stop-color:#F8B6CF"/>
	<stop  offset="1" style="stop-color:#EA95B5"/>
</linearGradient>
<path class="st2" d="M45.5,91C20.4,91,0,70.6,0,45.5S20.4,0,45.5,0S91,20.4,91,45.5S70.6,91,45.5,91z M45.5,1C21,1,1,21,1,45.5
	C1,70,21,90,45.5,90C70,90,90,70,90,45.5C90,21,70,1,45.5,1z"/>
</svg>
