<svg xmlns="http://www.w3.org/2000/svg" >
    <symbol xmlns="http://www.w3.org/2000/svg" id="arrowDown" viewBox="0 0 10.9 35.8">
        <path d="M10.7,29.1c-0.2-0.2-0.5-0.2-0.7,0.1L6,34V0.5C6,0.2,5.8,0,5.5,0c0,0,0,0-0.1,0c0,0,0,0-0.1,0C5.1,0,4.9,0.2,4.9,0.5V34l-4-4.8c-0.2-0.2-0.5-0.2-0.7-0.1c-0.2,0.2-0.2,0.5-0.1,0.7l4.8,5.7c0.1,0.2,0.3,0.3,0.5,0.3c0,0,0,0,0.1,0c0,0,0,0,0.1,0c0.2,0,0.4-0.1,0.5-0.2l4.8-5.7C11,29.6,10.9,29.3,10.7,29.1z"/>
    </symbol>
    <symbol xmlns="http://www.w3.org/2000/svg" id="icon1" viewBox="0 0 512 512">
        <path fill="#DD94B1" d="M235.2,296c-27-25.9-43.2-62.1-43.2-101.2c0-30.1,19.9-56.5,48.9-64.8l7.1-2l13.5,6c38.6,17.1,80.3,26,122.5,26v34.8c0,48.3-24.8,92.3-64,117.7v10c0,13,7.9,24.7,19.9,29.6l68.8,28.2c9.9-12.6,15.3-28.2,15.3-44.3V144C424,69,363,8,288,8S152,69,152,144v152L235.2,296z"/>
        <path fill="#202020" d="M425,378.3l-82.1-33.6c-9.1-3.7-14.9-12.4-14.9-22.2v-5.7c39.4-27.2,64-72.3,64-122V152h-8c-41.3,0-81.5-8.5-119.2-25.3l-16.2-7.2l-9.9,2.8c-32.2,9.2-54.7,39-54.7,72.5c0,33.9,12,66.9,33.2,93.2H80c-39.7,0-72,32.3-72,72s32.3,72,72,72h9.4C78,451.4,72,473.2,72,496v8h432v-8C504,444.1,473,397.9,425,378.3L425,378.3z M348.7,364.4l13.8,5.7c3.6,15.6,8.3,48.6-2.7,63c-3.6,4.7-8.7,7-15.8,7c-23.2,0-37.5-5.8-44.6-9.8L348.7,364.4z M333.6,357.9L326,368h-46.5c0.3-2.6,0.5-5.3,0.5-8v-26.4c1.8,0.7,3.7,1.4,5.5,2l2.5,0.8l2.5-0.8c7.6-2.5,14.8-5.6,21.7-9.2C313.6,339.9,321.5,351.7,333.6,357.9L333.6,357.9z M200,194.8c0-26.4,17.7-49.8,43-57.1l4.4-1.2l10.9,4.8c37.4,16.6,77,25.5,117.7,26.6v26.9c0,56.2-35.2,106-88,124.7c-2.6-0.9-5.2-2-8-3.3V288h-41.4C214.1,263.3,200,229.5,200,194.8L200,194.8z M80,416c-30.9,0-56-25.1-56-56s25.1-56,56-56h184v56c0,30.9-25.1,56-56,56H80z M276.6,430.2c-7.2,4.1-21.5,9.8-44.6,9.8c-5.6,0-12.2-1.2-16.8-8.4c17.9-1.8,33.9-10.2,45.5-22.7L276.6,430.2z M280,488H168v-40h-16v40H88.3c1.4-20.2,8.4-39.3,20.1-56h89.2c5.9,15.5,17.9,24,34.4,24c22.5,0,38.1-4.8,48-9.6V488z M270.6,395.5c2.1-3.6,3.7-7.5,5.1-11.5H314l-26,34.7L270.6,395.5z M424,488v-40h-16v40H296v-41.6c9.9,4.7,25.5,9.6,48,9.6c12,0,21.9-4.6,28.5-13.2c13.3-17.3,10.9-47.2,7.8-65.4l38.6,15.8c39.5,16.1,65.8,52.8,68.8,94.9H424z"/>
        <path fill="#202020" d="M375.7,136.7c-0.4-4.9-1.2-9.9-2.5-14.7l15.5-4c1.5,5.7,2.4,11.5,2.9,17.3L375.7,136.7z"/>
        <path fill="#202020" d="M368,107.3C353.7,76.2,322.3,56,288,56V40c40.5,0,77.6,23.8,94.6,60.7L368,107.3z"/>
        <path fill="#202020" d="M144,384c-13.2,0-24-10.8-24-24s10.8-24,24-24s24,10.8,24,24S157.2,384,144,384z M144,352c-4.4,0-8,3.6-8,8s3.6,8,8,8s8-3.6,8-8S148.4,352,144,352z"/>
        <path fill="#202020" d="M80,384c-13.2,0-24-10.8-24-24s10.8-24,24-24s24,10.8,24,24S93.2,384,80,384z M80,352c-4.4,0-8,3.6-8,8s3.6,8,8,8s8-3.6,8-8S84.4,352,80,352z"/>
        <path fill="#202020" d="M208,384c-13.2,0-24-10.8-24-24s10.8-24,24-24s24,10.8,24,24S221.2,384,208,384z M208,352c-4.4,0-8,3.6-8,8s3.6,8,8,8s8-3.6,8-8S212.4,352,208,352z"/>
    </symbol>
    <symbol xmlns="http://www.w3.org/2000/svg" id="icon2" viewBox="0 0 512 512">
        <path fill="#202020" d="M90.2,503.5h209c12.5,0,24.8-3.4,35.5-10l159.9-97.4c13.8-8.5,19.1-26,12.3-40.7c-6.8-14.7-23.6-22-39-16.8c-177.2,59.1-157.7,53.9-173.7,53.9c10.5-29.6-16.5-59.7-47.4-59.7h-44.1c-15.5,0-30.6-5.4-42.7-15.2c-25.6-20.7-49.4-18.9-69.8-18.9 M149.6,330.9c15.1,12.2,33.9,18.9,53.2,18.9h44c22.4,0,41.6,24.6,28.3,42.7h-49.1c-16.9,0-33.3,5-47.4,14.3l-6.2,4.2c-3.4,2.8-4.2,7.7-1.8,11.4c2.4,3.7,7.3,4.9,11.1,2.8c12.6-9.9,28.1-15.4,44.2-15.6c83.5,0,80.6,0.8,89.3-2.2l158-52.7c7.1-2.2,14.8,1.3,17.9,8s0.8,14.8-5.5,18.8L325.9,479c-8,4.9-17.2,7.4-26.6,7.4l-207.4,0V315.7h15C122.4,315.8,137.5,321.2,149.6,330.9L149.6,330.9z"/>
        <path fill="#202020" d="M492.9,85.3c-14.7,0.3-29.3,1.7-43.8,4.4c-2.4-14.3-6.2-28.4-11.2-42c-1.6-4.3-4.8-7.8-9-9.6c-4.2-1.9-8.9-2-13.2-0.3c-14.6,5.7-28.6,12.9-41.7,21.5c-10.9-19.6-24.2-37.7-39.7-53.9c-3.1-3.4-7.5-5.3-12.1-5.3c-4.6,0-9,1.9-12.1,5.3c-15.2,16.2-28.3,34.2-39.1,53.7c-13.1-8.5-27-15.6-41.5-21.3c-4.3-1.7-9-1.5-13.2,0.3s-7.4,5.3-9,9.6c-5,13.6-8.8,27.7-11.2,42.1c-14.7-2.7-29.7-4.1-44.6-4.4c-9.4,0-17.1,7.6-17.1,17.1c0.4,24.4,5.8,85.3,47.5,125.4c35.7,34.2,90.3,45.3,140.2,45.3S426.8,262,462.5,228c41.7-39.8,47.5-100.9,47.5-125.6C510,93,502.4,85.3,492.9,85.3L492.9,85.3z M222.9,53.5c15.6,6.2,54.1,23.3,75.3,53.7c1.6,2.3,4.2,3.7,7,3.8c3.2,0,6.1-1.8,7.5-4.6c1.5-2.8,1.3-6.2-0.6-8.8c-7.8-10.8-17.1-20.4-27.6-28.5c10.4-18.8,23-36.2,37.6-52c14.8,15.7,27.5,33.3,37.8,52.2c-10.4,8-19.6,17.6-27.3,28.2c-1.8,2.5-2,5.8-0.7,8.6c1.4,2.8,4.1,4.6,7.2,4.8c2.8,0,5.4-1.4,7-3.7c21.4-30.5,60-47.5,75.4-53.7c4.8,12.9,8.3,26.2,10.5,39.8c-58.8,15.3-93.9,48.8-110,105.1c-15.8-55.2-49.8-89.5-109.7-105.1C214.7,79.8,218.2,66.4,222.9,53.5L222.9,53.5z M193.8,215.6c-36.9-35.2-42.2-91-42.2-113.2c41.2,0.5,89.7,11.6,119.5,40.4c37.9,35.6,42.7,92.8,42.7,113.2C292.4,256,231.6,251.6,193.8,215.6L193.8,215.6z M450.8,215.6c-37.8,36-98.6,40.4-120,40.4c0-20.4,4.8-77.7,42.7-113.2c30.3-28.8,78.8-39.8,119.5-40.4C492.9,124.7,487.7,180.4,450.8,215.6z"/>
        <path fill="#202020" d="M387.9,212.7c-4.5,1.5-7,6.3-5.5,10.8s6.3,7,10.8,5.5c41-13.3,65-37.7,76.8-81.8c1-3,0.3-6.4-1.9-8.7c-2.2-2.3-5.6-3.2-8.6-2.2c-3.1,0.9-5.4,3.5-5.9,6.7C443.1,181.6,423.1,201.4,387.9,212.7L387.9,212.7z"/>
        <path fill="#DD94B1" d="M26.2,512h47.7C86,512,96,502,96,489.8V303.8c0-12.2-10-22.2-22.2-22.2H26.2C14,281.6,4,291.6,4,303.8v186.1C4,502,14,512,26.2,512z"/>
    </symbol>
    <symbol xmlns="http://www.w3.org/2000/svg" id="icon3" viewBox="0 0 512 512">
        <path fill="#DD94B1" d="M259.9,441.9c115.6,0,167-77.1,167-77.1c29-17.8,51.4-28,51.4-50.7c0-31.1-16.8-45.5-30-90.5l-25.4-12.8c10.9,17.8-1.8,41.5-23.3,41.5h-25.4C347,302.9,259.9,352.7,259.9,352.7V352c-14.7-11.1-38.2-24.1-56.9-24.1c-13.3,0-29.2,6.4-41.7,12.8c-12.6,6.4-17,9.4-17,9.4c-20.8-3-40.2-10.6-57.9-20.9c11.7-11.7,23.2-23.2,34.2-34.2c-0.9-1.3,4.5,4-48.2-45.9L29,282.1c-25.8,19.7-28.3,57.8-4.9,80.3C87.6,424,171.8,441.9,259.9,441.9L259.9,441.9z"/>
        <path fill="#202020" d="M0,441.2c0,4.4,3.6,8,8,8h222.7c15.2,0.8,33,1.1,48.2,0h225c4.4,0,8-3.6,8-8s-3.6-8-8-8H348.5c36.8-14.9,67.2-39.3,84-62.4c29-17.7,53.8-29.4,53.8-56.7c0-30.3-14.5-46-26.8-81.6c3.8,0.5,7.6,0.7,11.4,0.7c22.6,0,41-18,41-40.1v-56.2c0-48.2-53.5-80.4-98-56c-13.4-26.8-53.3-24.5-63.3,3.8l-7,19.7c-8.3,23.6,11.5,47.6,36.7,44.4c0.6,14.5,4.8,28.4,12.5,41h-65.7c-4.4,0-8,3.6-8,8s3.6,8,8,8h72.3c10.6,0,19.3,8.6,19.3,19.2c0,4.4,3.6,8,8,8c4.1,0,7.5-3.1,8-7.2c11.9,5,1-3.6,23.1,44.9c7.1,15.7,12.3,27,12.3,43.3c0,14.7-12.8,23-37.3,37.7c-10.6,6.4-11.5,6.6-12.7,8.6c-0.5,0.7-44.7,65.3-141.7,72.8h-47.6c-76.3-3.9-146.9-23.8-201.3-76.5c-19.7-19.1-17.8-51.4,4.2-68.2l37.9-28.8l37.5,35.5c-9.3,9.3-18.9,18.9-28.5,28.5c-3.7,3.7-2.9,9.9,1.6,12.6c20,11.6,40.5,19,60.8,21.9c4.4,0.6,3.9-1.1,21.7-10.2c15.3-7.8,28.5-12,38.1-12c18.7,0,41.9,15.2,48.9,20.2v45.2c0,4.4,3.6,8,8,8c4.4,0,8-3.6,8-8v-44c17.3-10.4,84.2-52.2,111-96.9h5.1c4.4,0,8-3.6,8-8c0-4.4-3.6-8-8-8H211.8c-27,0-52.4,10.5-71.5,29.6c-5.1,5.1-1.4,13.7,5.7,13.7c2,0,4.1-0.8,5.7-2.3c16.1-16.1,37.4-24.9,60.1-24.9h147.9c-26.8,37.1-82.1,72.3-98.9,82.5c-9.1-6.4-34.9-22.9-57.9-22.9c-19.4,0-43.7,11.9-60.4,21.9c-14.3-2.4-28.7-7.2-43-14.4c15.1-15.1,18.8-18.8,26.6-26.6c1.4-1.4,2.3-3.3,2.3-5.4c0.2-5.2,0-4-43.9-45.5L98,239.7c5.7,12.4,18.2,20.6,32.1,20.6c4.4,0,8-3.6,8-8c0-4.4-3.6-8-8-8c-10.5,0-19.3-8.5-19.3-19.3c0-10.6,8.6-19.2,19.3-19.2h214.6c4.4,0,8-3.6,8-8s-3.6-8-8-8H229.8c1.2-5.3,1.2-10.8-0.2-16.1c-14.1-68.4-13.2-63.9-13.3-64.3c-6.1-22.5-34.3-30-50.8-13.5c-2.8,2.8-1.6-1.4-11,80.7l-17.4,13.2h-7.2c-18.7,0-33.6,14.4-35.1,32.1c-73,55.5,2.9-2.2-70.8,53.8c-30,22.8-32.3,66.7-5.7,92.5c32.5,31.5,70.2,52.2,113.1,65H8C3.6,433.2,0,436.8,0,441.2L0,441.2z M487.2,109.5c-10.2,15.3-27.6,24.2-46,24.2c-4.4,0-8,3.6-8,8c0,4.4,3.6,8,8,8c20.1,0,39.6-8.3,53.2-23.5c2.1-2.3,1.5,23.7,1.5,66.9c0,13.3-11.2,24.1-25,24.1c-9.8,0-19.4-1.8-28.4-5.4c-21.1-10.6-11.5-6-19.7-13.2l8.9-22.1c1.7-4.1-0.3-8.8-4.4-10.4c-4.1-1.7-8.8,0.3-10.4,4.4l-6.6,16.4c-9.2-12.4-13.9-26.9-13.9-42c0-3-0.5-1.7,2.1-3.8c3.9-3.2,7.2-7.5,9.3-12.4c0.2-0.4,8.2-22.1,9.1-26.8c0.3-1.4,0.5-2.8,0.5-4.3C439.8,82.2,471.4,87.2,487.2,109.5L487.2,109.5z M358.8,109.7l7-19.7c2.6-7.4,9.7-12,17.3-12c9.4,0,17.4,7,18.3,16.1c0,5.8,0.4,3.3-6.5,23c-1.7,4.8-2.9,9.8-9.4,13.5C371.2,139,353.3,125.5,358.8,109.7z M170.1,181.8l8.7-76.2c7.9-5.6,19.3-1.8,22,7.8c14.1,68.4,13.1,63.9,13.2,64.3c1.1,4.1,0.7,8.4-1.1,12.1h-49.4C166.9,187.3,169.7,185.9,170.1,181.8z"/>
    </symbol>
    <symbol xmlns="http://www.w3.org/2000/svg" id="icon4" viewBox="0 0 512 512">
        <path fill="#DD94B1" d="M392,400h-16v32H216v40h256v-40v-72h-80V400z"/>
        <path fill="#DD94B1" d="M256,232H112c-13.2,0-24-10.8-24-24v-80c0-13.2,10.8-24,24-24h144c13.2,0,24,10.8,24,24v80C280,221.2,269.2,232,256,232z"/>
        <path fill="#DD94B1" d="M88,288h80v72H88V288z"/>
        <path fill="#202020" d="M491.7,255.6c7.9-7.9,12.3-18.5,12.3-29.7c0-23.1-18.8-41.9-41.9-41.9c-11.2,0-21.7,4.4-29.7,12.3L348.7,280 H312V88V72V8H48C25.9,8,8,25.9,8,48v304c0,22.1,17.9,40,40,40h136v112h320V280h-36.7L491.7,255.6z M291.5,366.8l29.7,29.7l-44.5,14.8L291.5,366.8z M336,388.7L299.3,352l84.7-84.7l36.7,36.7L336,388.7z M432,292.7L395.3,256l12.7-12.7l36.7,36.7L432,292.7z M443.7,207.6c4.9-4.9,11.4-7.6,18.3-7.6c14.3,0,25.9,11.6,25.9,25.9c0,6.9-2.7,13.4-7.6,18.3L456,268.7L419.3,232L443.7,207.6z M48,24h248v48H48c-13.2,0-24-10.8-24-24S34.8,24,48,24z M24,352V79.8c6.7,5.1,15,8.2,24,8.2h8v288h-8C34.8,376,24,365.2,24,352z M72,376V88h224v192H184v96H72z M488,296v192H200V296h132.7L281,347.7L255.6,424H216v16h256v-16H289.3l51-17l111-111H488z"/>
        <path fill="#202020" d="M456,456h16v16h-16V456z"/>
        <path fill="#202020" d="M216,456h224v16H216V456z"/>
        <path fill="#202020" d="M376,392h96v16h-96V392z"/>
        <path fill="#202020" d="M456,360h16v16h-16V360z"/>
        <path fill="#202020" d="M424,360h16v16h-16V360z"/>
        <path fill="#202020" d="M392,360h16v16h-16V360z"/>
        <path fill="#202020" d="M88,280h80v16H88V280z"/>
        <path fill="#202020" d="M88,312h80v16H88V312z"/>
        <path fill="#202020" d="M88,344h48v16H88V344z"/>
        <path fill="#202020" d="M152,344h16v16h-16V344z"/>
    </symbol>
    <symbol xmlns="http://www.w3.org/2000/svg" id="mail" viewBox="0 0 914.7 914.7">
        <circle fill="#FFFFFF" cx="457.4" cy="457.4" r="457.4"/>
        <path fill="#D24C4C" d="M668.4,262.4h-422c-6.9,0-13.4,1.7-19.3,4.5l229.3,229.3l51.4-49.4c0,0,0,0,0,0c0,0,0,0,0,0l179.9-179.9C681.8,264.1,675.3,262.4,668.4,262.4z"/>
        <path fill="#D24C4C" d="M708.9,288.1L539.6,457.4l169.3,169.3c2.8-5.9,4.5-12.4,4.5-19.3v-300C713.4,300.4,711.7,294,708.9,288.1z"/>
        <path fill="#D24C4C" d="M205.9,288.1c-2.8,5.9-4.5,12.4-4.5,19.3v300c0,6.9,1.7,13.4,4.5,19.3l169.3-169.3L205.9,288.1z"/>
        <path fill="#D24C4C" d="M518.4,478.6L467,528c-2.9,2.9-6.8,4.4-10.6,4.4c-3.8,0-7.7-1.5-10.6-4.4l-49.4-49.4L227.1,647.8c5.9,2.8,12.4,4.5,19.3,4.5h422c6.9,0,13.4-1.7,19.3-4.5L518.4,478.6z"/>
    </symbol>
    <symbol xmlns="http://www.w3.org/2000/svg" id="alert" viewBox="0 0 512.001 512.001">
        <path d="M503.839,395.379l-195.7-338.962C297.257,37.569,277.766,26.315,256,26.315c-21.765,0-41.257,11.254-52.139,30.102L8.162,395.378c-10.883,18.85-10.883,41.356,0,60.205c10.883,18.849,30.373,30.102,52.139,30.102h391.398c21.765,0,41.256-11.254,52.14-30.101C514.722,436.734,514.722,414.228,503.839,395.379z M477.861,440.586c-5.461,9.458-15.241,15.104-26.162,15.104H60.301c-10.922,0-20.702-5.646-26.162-15.104c-5.46-9.458-5.46-20.75,0-30.208L229.84,71.416c5.46-9.458,15.24-15.104,26.161-15.104c10.92,0,20.701,5.646,26.161,15.104l195.7,338.962C483.321,419.836,483.321,431.128,477.861,440.586z"/>
        <rect x="241.001" y="176.01" width="29.996" height="149.982" />
        <path d="M256,355.99c-11.027,0-19.998,8.971-19.998,19.998s8.971,19.998,19.998,19.998c11.026,0,19.998-8.971,19.998-19.998 S267.027,355.99,256,355.99z" />
    </symbol>
    <symbol xmlns="http://www.w3.org/2000/svg" id="user" viewBox="0 0 512 512">
        <path d="M256,0c-74.439,0-135,60.561-135,135s60.561,135,135,135s135-60.561,135-135S330.439,0,256,0z"/>
        <path d="M423.966,358.195C387.006,320.667,338.009,300,286,300h-60c-52.008,0-101.006,20.667-137.966,58.195C51.255,395.539,31,444.833,31,497c0,8.284,6.716,15,15,15h420c8.284,0,15-6.716,15-15C481,444.833,460.745,395.539,423.966,358.195z"/>
    </symbol>
    <symbol xmlns="http://www.w3.org/2000/svg" id="plus" viewBox="0 0 20 20">
        <polygon points="20,8 20,12 0,12 0,8"/>
        <polygon points="8,0 12,0 12,20 8,20"/>
    </symbol>
    <symbol xmlns="http://www.w3.org/2000/svg" id="facebook" viewBox="0 0 24 24">
        <path d="m15.997 3.985h2.191v-3.816c-.378-.052-1.678-.169-3.192-.169-3.159 0-5.323 1.987-5.323 5.639v3.361h-3.486v4.266h3.486v10.734h4.274v-10.733h3.345l.531-4.266h-3.877v-2.939c.001-1.233.333-2.077 2.051-2.077z" fill="#DB91AE"/>
    </symbol>
    <symbol xmlns="http://www.w3.org/2000/svg" id="closeModal" viewBox="0 0 16 16">
        <path d="M16,1.6,14.4,0,8,6.4,1.6,0,0,1.6,6.4,8,0,14.4,1.6,16,8,9.6,14.4,16,16,14.4,9.6,8Z"/>
    </symbol>

    <symbol xmlns="http://www.w3.org/2000/svg" id="menuBurger" viewBox="0 0 25 16">
        <path d="M.94,1.88H24.06a.94.94,0,1,0,0-1.88H.94a.94.94,0,1,0,0,1.88ZM24.06,7.06H.94a.94.94,0,1,0,0,1.88H24.06a.94.94,0,1,0,0-1.88Zm0,7.06H.94A.94.94,0,1,0,.94,16H24.06a.94.94,0,1,0,0-1.88Z"/>
    </symbol>
    <symbol xmlns="http://www.w3.org/2000/svg" id="rezart_logo" viewBox="0 0 446.4 267.24">
        <path d="M442.14,240.64,302,.56a1.51,1.51,0,0,0-2.33,0C298.37,1.81,170.74,221,170.74,221l-30.56-51.21.33-1.33S195.32,152,195.32,92.33,135.7,15.52,122.58,15.52H0L20.6,52.76h93.34s47.5-3.56,47.5,40.57-36.19,44.89-42.52,44.89H80.39l70.09,117.71s6.49,11.31,16.94,11.31,14.64-5.43,18.93-11.64S300.63,64.4,300.63,64.4l84.71,141.65L299,156.18,331.19,212l89,51.21s14.13,5.79,22.59-2.33S442.14,240.64,442.14,240.64ZM37.2,158.17,1.33,96.32v149s-.14,14.63,18.27,14.63,17.94-15.3,17.94-15.3Z" />
    </symbol>
    <symbol xmlns="http://www.w3.org/2000/svg" id="playBtn" viewBox="0 0 41.999 41.999">
        <path d="M36.068,20.176l-29-20C6.761-0.035,6.363-0.057,6.035,0.114C5.706,0.287,5.5,0.627,5.5,0.999v40c0,0.372,0.206,0.713,0.535,0.886c0.146,0.076,0.306,0.114,0.465,0.114c0.199,0,0.397-0.06,0.568-0.177l29-20c0.271-0.187,0.432-0.494,0.432-0.823S36.338,20.363,36.068,20.176z"/>
    </symbol>
    <symbol xmlns="http://www.w3.org/2000/svg" id="arrow_down" viewBox="0 0 447.243 447.243">
        <path xmlns="http://www.w3.org/2000/svg" d="M406.101,232.603c-0.978-0.982-2.019-1.899-3.116-2.745c-13.381-8.971-31.276-7.013-42.4,4.64l-88.64,88.32c-4.7,4.695-8.641,10.093-11.68,16l-5.12,9.76v-314.4c0.677-16.099-10.332-30.349-26.08-33.76c-17.445-2.829-33.881,9.019-36.71,26.465c-0.297,1.83-0.434,3.682-0.41,5.535v315.52l-3.2-6.88c-3.183-6.725-7.515-12.843-12.8-18.08l-88.64-88.48c-11.124-11.653-29.019-13.611-42.4-4.64c-14.259,10.441-17.355,30.464-6.914,44.724c0.844,1.152,1.764,2.247,2.754,3.276l160,160c12.49,12.504,32.751,12.515,45.255,0.025c0.008-0.008,0.017-0.017,0.025-0.025l160-160C418.542,265.382,418.577,245.121,406.101,232.603z"/>
    </symbol>
    <symbol xmlns="http://www.w3.org/2000/svg" id="instagram" viewBox="0 0 24 24">
        <path d="m12.004 5.838c-3.403 0-6.158 2.758-6.158 6.158 0 3.403 2.758 6.158 6.158 6.158 3.403 0 6.158-2.758 6.158-6.158 0-3.403-2.758-6.158-6.158-6.158zm0 10.155c-2.209 0-3.997-1.789-3.997-3.997s1.789-3.997 3.997-3.997 3.997 1.789 3.997 3.997c.001 2.208-1.788 3.997-3.997 3.997z" fill="#DB91AE"/>
        <path d="m16.948.076c-2.208-.103-7.677-.098-9.887 0-1.942.091-3.655.56-5.036 1.941-2.308 2.308-2.013 5.418-2.013 9.979 0 4.668-.26 7.706 2.013 9.979 2.317 2.316 5.472 2.013 9.979 2.013 4.624 0 6.22.003 7.855-.63 2.223-.863 3.901-2.85 4.065-6.419.104-2.209.098-7.677 0-9.887-.198-4.213-2.459-6.768-6.976-6.976zm3.495 20.372c-1.513 1.513-3.612 1.378-8.468 1.378-5 0-7.005.074-8.468-1.393-1.685-1.677-1.38-4.37-1.38-8.453 0-5.525-.567-9.504 4.978-9.788 1.274-.045 1.649-.06 4.856-.06l.045.03c5.329 0 9.51-.558 9.761 4.986.057 1.265.07 1.645.07 4.847-.001 4.942.093 6.959-1.394 8.453z" fill="#DB91AE"/>
        <circle cx="18.406" cy="5.595" r="1.439" fill="#DB91AE"/>
    </symbol>
    <symbol xmlns="http://www.w3.org/2000/svg" id="youtube" viewBox="-21 -117 682.66672 682">
        <path d="m626.8125 64.035156c-7.375-27.417968-28.992188-49.03125-56.40625-56.414062-50.082031-13.703125-250.414062-13.703125-250.414062-13.703125s-200.324219 0-250.40625 13.183593c-26.886719 7.375-49.03125 29.519532-56.40625 56.933594-13.179688 50.078125-13.179688 153.933594-13.179688 153.933594s0 104.378906 13.179688 153.933594c7.382812 27.414062 28.992187 49.027344 56.410156 56.410156 50.605468 13.707031 250.410156 13.707031 250.410156 13.707031s200.324219 0 250.40625-13.183593c27.417969-7.378907 49.03125-28.992188 56.414062-56.40625 13.175782-50.082032 13.175782-153.933594 13.175782-153.933594s.527344-104.382813-13.183594-154.460938zm-370.601562 249.878906v-191.890624l166.585937 95.945312zm0 0" fill="#DB91AE"/>
    </symbol>
    <symbol xmlns="http://www.w3.org/2000/svg" id="telegram" viewBox="0 0 24 24">
        <path d="m9.417 15.181-.397 5.584c.568 0 .814-.244 1.109-.537l2.663-2.545 5.518 4.041c1.012.564 1.725.267 1.998-.931l3.622-16.972.001-.001c.321-1.496-.541-2.081-1.527-1.714l-21.29 8.151c-1.453.564-1.431 1.374-.247 1.741l5.443 1.693 12.643-7.911c.595-.394 1.136-.176.691.218z" fill="#DB91AE"/>
    </symbol>
    <symbol xmlns="http://www.w3.org/2000/svg" id="visa" viewBox="0 0 840 600">
        <path d="M60,0h720c33.1,0,60,26.9,60,60v480c0,33.1-26.9,60-60,60H60c-33.1,0-60-26.9-60-60V60C0,26.9,26.9,0,60,0z" fill="#FFFFFF"/>
        <g transform="translate(120.000000, 208.000000)">
            <path fill="#0066B2" d="M212.5,181.4L242.4,3.1h47.7l-29.8,178.3H212.5z M433.2,7.5C423.7,3.9,408.9,0,390.4,0c-47.1,0-80.3,24.2-80.6,58.8c-0.3,25.6,23.7,39.9,41.8,48.4c18.6,8.7,24.8,14.3,24.7,22.1c-0.1,11.9-14.8,17.4-28.5,17.4c-19.1,0-29.2-2.7-44.9-9.3l-6.1-2.8l-6.7,39.9c11.1,5,31.7,9.3,53.1,9.5c50.1,0,82.6-23.9,83-60.9c0.2-20.3-12.5-35.7-40-48.4c-16.7-8.3-26.9-13.7-26.8-22.1c0-7.4,8.6-15.3,27.3-15.3c15.6-0.2,26.9,3.2,35.7,6.8l4.3,2L433.2,7.5z M555.5,3.3h-36.8c-11.4,0-20,3.2-25,14.8l-70.8,163.4h50.1c0,0,8.2-22,10-26.8c5.5,0,54.1,0.1,61.1,0.1c1.4,6.2,5.8,26.7,5.8,26.7h44.3L555.5,3.3z M496.7,118.2c4-10.2,19-49.8,19-49.8c-0.3,0.5,3.9-10.3,6.3-17l3.2,15.4c0,0,9.1,42.5,11,51.5H496.7z M172.5,3.3l-46.7,121.5l-5-24.7c-8.7-28.5-35.8-59.3-66-74.8l42.7,155.9l50.5,0L223.1,3.3H172.5z"/>
            <path fill="#F79510" d="M81.8,0H2.9L2.3,3.9c61.4,15.4,102,52.6,118.8,97.3L104,15.7C101,3.9,92.4,0.4,81.8,0"/>
        </g>
    </symbol>
    <symbol xmlns="http://www.w3.org/2000/svg" id="mastercard" viewBox="0 0 840 600">
        <path fill="#FFFFFF" d="M60,0h720c33.1,0,60,26.9,60,60v480c0,33.1-26.9,60-60,60H60c-33.1,0-60-26.9-60-60V60C0,26.9,26.9,0,60,0z"/>
        <path fill="#231F20" d="M254.7,494.7v-26.8c0.5-8.9-5.8-16.5-14.7-17c-0.9,0-1.4,0-2.3,0c-5.8-0.5-11.6,2.6-15.2,7.5c-3.1-4.9-8.4-8-14.3-7.5c-4.4-0.5-8.9,2.3-11.6,6.3v-5.4h-9.4v42.8h9.4V471c-0.9-5.4,3.1-10.7,8.4-11.2c0.5,0,1.4,0,1.8,0c6.3,0,9.4,4,9.4,11.2v23.6h9.4V471c-0.9-5.4,3.1-10.7,8.4-11.2c0.5,0,1.4,0,1.8,0c6.3,0,9.4,4,9.4,11.2v23.6h9.5V494.7z M393.4,451.9h-15.2v-12.9h-9.4v12.9h-8.4v8.4h8.4V480c0,9.8,4,15.6,14.7,15.6c4,0,8-1.4,11.6-3.1l-2.6-8c-2.6,1.4-5.4,2.3-8,2.3c-4.4,0-6.3-2.6-6.3-7.2V460h15.2v-8.1H393.4z M472.8,451c-4.4,0-8.9,2.3-11.2,6.3v-5.4h-9.4v42.8h9.4v-24.1c0-7.2,3.1-11.2,8.9-11.2c1.8,0,4,0.5,5.8,0.9l2.6-8.9C476.8,451.5,474.5,451,472.8,451L472.8,451z M352.8,455.5c-5.4-3.1-11.2-4.4-17.3-4.4c-10.7,0-17.8,5.4-17.8,13.8c0,7.2,5.4,11.2,14.7,12.4l4.4,0.5c4.9,0.9,7.5,2.3,7.5,4.4c0,3.1-3.5,5.4-9.8,5.4c-4.9,0-10.3-1.4-14.3-4.4l-4.4,7.2c5.4,3.5,12.1,5.8,18.3,5.4c12.4,0,19.6-5.8,19.6-13.8s-5.8-11.6-14.7-12.9l-4.4-0.5c-4-0.5-7.2-1.4-7.2-4c0-2.6,3.1-4.9,8-4.9s9.4,1.4,13.3,3.5L352.8,455.5z M601.1,451c-4.4,0-8.9,2.3-11.2,6.3v-5.4h-9.4v42.8h9.4v-24.1c0-7.2,3.1-11.2,8.9-11.2c1.8,0,4,0.5,5.8,0.9l2.6-8.9C605.7,451.5,603.4,451,601.1,451L601.1,451z M481.7,473.4c-0.5,12.1,8.9,21.9,20.5,22.2c0.9,0,1.4,0,2.3,0c5.4,0.5,11.2-1.4,15.2-4.9l-4.4-7.5c-3.1,2.3-7.2,3.5-11.2,4c-7.5-0.5-12.9-7.2-12.4-14.7c0.5-6.7,5.8-12.1,12.4-12.4c4,0,8,1.4,11.2,4l4.4-7.5c-4.4-3.5-9.8-5.4-15.2-4.9c-12.1-0.9-21.9,8.4-22.7,20.1C481.7,472,481.7,472.5,481.7,473.4L481.7,473.4z M568.6,473.4v-21.4h-9.4v5.4c-3.1-4-8-6.3-13.3-6.3c-12.4,0-22.2,9.8-22.2,22.2s9.8,22.2,22.2,22.2c5.4,0,10.3-2.3,13.3-6.3v5.4h9.4V473.4z M534.3,473.4c0.5-7.2,6.7-12.4,13.8-12.1c7.2,0.5,12.4,6.7,12.1,13.8c-0.5,6.7-5.8,12.1-12.9,12.1c-7.2,0-12.9-5.4-12.9-12.4C534.3,474.3,534.3,473.8,534.3,473.4z M422.4,451c-12.4,0-22.2,10.3-21.9,22.7c0.5,12.4,10.3,22.2,22.7,21.9l0,0c6.3,0.5,12.9-1.8,17.8-5.8l-4.4-6.7c-3.5,2.6-8,4.4-12.4,4.4c-6.3,0.5-12.1-4-12.9-10.3h31.7c0-1.4,0-2.3,0-3.5C442.9,460,434.5,451,422.4,451L422.4,451z M422.4,459.6c5.8,0,10.7,4.4,10.7,10.3l0,0h-22.2C411.2,464,416.1,459.1,422.4,459.6L422.4,459.6z M654.8,473.4v-38.3h-8.9v22.2c-3.1-4-8-6.3-13.3-6.3c-12.4,0-22.2,9.8-22.2,22.2s9.8,22.2,22.2,22.2c5.4,0,10.3-2.3,13.3-6.3v5.4h8.9V473.4z M670.3,488.6c0.5,0,1.4,0,1.8,0.5c0.5,0,0.9,0.5,1.4,0.9c0.5,0.5,0.9,0.9,0.9,1.4c0.5,0.9,0.5,2.3,0,3.1c-0.5,0.5-0.5,0.9-0.9,1.4c-0.5,0.5-0.9,0.9-1.4,0.9c-0.5,0.5-0.9,0.5-1.8,0.5c-1.8,0-3.1-0.9-4-2.6c-0.5-0.9-0.5-2.3,0-3.1c0.5-0.5,0.5-0.9,0.9-1.4c0.5-0.5,0.9-0.9,1.4-0.9C669,488.6,669.8,488.6,670.3,488.6L670.3,488.6z M670.3,496.1c0.5,0,0.9,0,1.4-0.5c0.5,0,0.9-0.5,0.9-0.9c1.4-1.4,1.4-3.1,0-4.4c-0.5-0.5-0.5-0.5-0.9-0.9c-0.5,0-0.9-0.5-1.4-0.5s-0.9,0-1.4,0.5c-0.5,0-0.9,0.5-0.9,0.9c-1.4,1.4-1.4,3.1,0,4.4c0.5,0.5,0.9,0.5,0.9,0.9C669.4,496.1,669.8,496.1,670.3,496.1L670.3,496.1z M670.3,490.7c0.5,0,0.9,0,1.4,0.5c0.5,0.5,0.5,0.5,0.5,0.9s0,0.5-0.5,0.9c-0.5,0.5-0.5,0.5-0.9,0.5l1.4,1.4h-0.9l-1.4-1.4h-0.5v1.4h-0.9v-4L670.3,490.7z M669.4,491.6v0.9h0.9h0.5v-0.5v-0.5h-0.5H669.4z M620.4,473.4c0.5-7.2,6.7-12.4,13.8-12.1c7.2,0.5,12.4,6.7,12.1,13.8c-0.5,6.7-5.8,12.1-12.9,12.1c-7.1,0-12.9-5.4-12.9-12.4C620.4,474.3,620.4,473.8,620.4,473.4z M307.4,473.4v-21.4h-9.4v5.4c-3.1-4-8-6.3-13.3-6.3c-12.4,0-22.2,9.8-22.2,22.2s9.8,22.2,22.2,22.2c5.4,0,10.3-2.3,13.3-6.3v5.4h9.4V473.4z M272.6,473.4c0.5-7.2,6.7-12.4,13.8-12.1c7.2,0.5,12.4,6.7,12.1,13.8c-0.5,6.7-5.8,12.1-12.9,12.1c-7.2,0-12.9-5.4-12.9-12.4C272.6,474.3,272.6,473.8,272.6,473.4L272.6,473.4z"/>
        <rect x="349.7" y="127.4" fill="#FF5F00" width="140.4" height="252.3"/>
        <path fill="#EB001B" d="M358.6,253.6c0-49,22.7-95.8,61.5-126.2c-69.6-54.9-170.8-42.8-225.6,27.1s-42.3,170.3,27.1,225.2c58.4,46,140,46,198.4,0C381.3,349.4,358.6,303.1,358.6,253.6z"/>
        <path fill="#F79E1B" d="M679.6,253.6c0,88.7-71.7,160.5-160.5,160.5c-36.2,0-70.8-12.1-99-34.3c69.6-54.9,81.6-155.6,27.1-225.2c-8-10.3-17-19.2-27.1-27.1c69.6-54.9,170.8-42.8,225.2,26.8C667.6,182.6,679.6,217.4,679.6,253.6L679.6,253.6z"/>
        <path fill="#F79E1B" d="M664.4,352.9v-5.4h2.3v-0.9h-5.4v0.9h2.3v5.4H664.4z M674.7,352.9v-6.3h-1.8l-1.8,4.4l-1.8-4.4h-1.4v6.3h1.4v-4.4l1.8,4h1.4l1.8-4v4.9L674.7,352.9z"/>
    </symbol>
</svg>