<?xml version="1.0" encoding="utf-8"?>
<!-- Generator: Adobe Illustrator 21.1.0, SVG Export Plug-In . SVG Version: 6.00 Build 0)  -->
<svg version="1.1" id="Layer_1" xmlns="http://www.w3.org/2000/svg" xmlns:xlink="http://www.w3.org/1999/xlink" x="0px" y="0px"
	 viewBox="0 0 199 198.8" style="enable-background:new 0 0 199 198.8;" xml:space="preserve">
<g>
	<path d="M122.1,8.1c0.4,0.6,0.5,1.2,0.3,1.9c-0.1,0.6-0.4,1.1-0.8,1.4c-0.4,0.4-0.9,0.6-1.6,0.8c-0.6,0.1-1.3,0.1-1.9,0
		c-0.4-0.1-0.9-0.2-1.2-0.4s-0.7-0.4-0.9-0.6c-0.1-0.1-0.1-0.1-0.1-0.2c0,0,0-0.1,0-0.2l0.2-1.8c0,0,0,0,0.1,0s0.1,0,0.1,0.1
		c0,0.6,0.1,1.1,0.3,1.5c0.2,0.4,0.5,0.8,0.8,1.1c0.4,0.3,0.7,0.4,1.1,0.5c0.7,0.1,1.2,0,1.7-0.4c0.4-0.4,0.7-0.9,0.9-1.6
		c0.2-0.8,0.1-1.5-0.3-2.1c-0.4-0.5-1-0.9-1.9-1.1c0,0-0.1,0,0-0.1c0-0.1,0-0.1,0.1-0.1c0.8,0.2,1.5,0.1,1.9-0.2
		c0.5-0.3,0.8-0.8,1-1.5s0.1-1.3-0.1-1.8s-0.6-0.8-1.2-0.9c-0.5-0.1-1.1,0-1.6,0.3s-1,0.9-1.4,1.6c0,0,0,0-0.1,0c0,0,0,0-0.1,0l0,0
		l0.6-1.8c0-0.1,0.1-0.2,0.1-0.2s0.1-0.1,0.2-0.1c0.9-0.1,1.7-0.1,2.4,0.1c0.9,0.2,1.6,0.6,2,1.1s0.5,1.1,0.4,1.7s-0.5,1.1-1,1.4
		c-0.5,0.4-1.1,0.6-1.7,0.7C121.2,7.2,121.7,7.6,122.1,8.1z"/>
	<path d="M134.9,17C134.9,17.1,134.9,17.1,134.9,17c-0.3,0-0.6-0.1-1-0.3c-0.4-0.2-0.7-0.3-0.9-0.3c-0.2-0.1-0.5-0.2-0.9-0.3
		c-0.3-0.1-0.6-0.2-0.8-0.2c0,0-0.1-0.1,0-0.1s0.1-0.1,0.1-0.1c0.4,0.1,0.6,0.2,0.8,0.2s0.3-0.1,0.4-0.3c0.1-0.2,0.1-0.4,0-0.8
		l-0.3-3.2l-3.6-1.3l-1.6,1.7c-0.2,0.3-0.4,0.5-0.5,0.8c-0.2,0.6,0.2,1.1,1.1,1.5c0,0,0.1,0.1,0,0.1c0,0.1-0.1,0.1-0.1,0.1
		c-0.2-0.1-0.4-0.2-0.8-0.3c-0.4-0.2-0.7-0.3-1-0.4c-0.3-0.1-0.6-0.2-0.9-0.3s-0.6-0.2-0.8-0.2c0,0-0.1-0.1,0-0.1
		c0-0.1,0.1-0.1,0.1-0.1c0.3,0.1,0.5,0.1,0.8,0.1c0.2,0,0.5-0.2,0.8-0.4s0.6-0.5,1-1l5.8-6.3h0.1c0.1,0,0.1,0,0.1,0.1l1,8.8
		c0.1,0.9,0.2,1.5,0.3,1.8C134.3,16.5,134.5,16.8,134.9,17C135,16.9,135,16.9,134.9,17z M129,10.1l3.3,1.2L131.9,7L129,10.1z"/>
	<path d="M146.5,23C146.4,23.1,146.4,23.1,146.5,23c-0.4-0.1-0.6-0.2-0.8-0.3l-1-0.5l-1-0.5c-0.2-0.1-0.4-0.2-0.7-0.4c0,0,0,0,0-0.1
		s0.1-0.1,0.1-0.1c0.4,0.2,0.6,0.3,0.8,0.4c0.2,0,0.3,0,0.5-0.1c0.1-0.1,0.3-0.3,0.4-0.6l3.5-6.5c0.2-0.3,0.3-0.5,0.3-0.7
		c0-0.1,0-0.2-0.1-0.3s-0.4-0.2-0.7-0.4l-2.9-1.6c-0.4-0.2-0.7-0.3-0.8-0.4c-0.2,0-0.3,0-0.4,0.1c-0.1,0.1-0.2,0.3-0.4,0.6l-3.5,6.5
		c-0.2,0.3-0.2,0.5-0.3,0.7s0,0.3,0.2,0.4s0.4,0.3,0.8,0.5c0,0,0,0,0,0.1s-0.1,0.1-0.1,0.1c-0.3-0.2-0.5-0.3-0.7-0.4l-1-0.6l-1-0.5
		c-0.2-0.1-0.4-0.2-0.7-0.4c0,0,0,0,0-0.1s0.1-0.1,0.1-0.1c0.4,0.2,0.6,0.3,0.8,0.4s0.4,0,0.5-0.1s0.3-0.3,0.4-0.6l3.4-6.4
		c0.2-0.3,0.2-0.5,0.3-0.7c0-0.2,0-0.4-0.2-0.5c-0.1-0.2-0.4-0.3-0.7-0.5c0,0,0,0,0-0.1s0.1-0.1,0.1-0.1c0.3,0.2,0.6,0.3,0.9,0.5
		c1.2,0.7,2.5,1.4,3.9,2.1c1.2,0.6,2.6,1.4,4.2,2.2l0.5,0.3c0,0,0,0,0,0.1s-0.1,0.1-0.1,0.1c-0.3-0.2-0.6-0.3-0.8-0.3
		s-0.4,0-0.5,0.2c-0.1,0.1-0.3,0.3-0.5,0.6l-3.4,6.4c-0.2,0.3-0.2,0.5-0.2,0.7s0.1,0.3,0.2,0.5C145.9,22.5,146.1,22.7,146.5,23
		C146.5,22.9,146.5,22.9,146.5,23z"/>
	<path d="M157.7,31.2C157.6,31.2,157.6,31.3,157.7,31.2c-0.4-0.2-0.6-0.3-0.7-0.4l-1-0.8l-1-0.7c-0.2-0.1-0.4-0.3-0.6-0.5v-0.1
		c0-0.1,0.1-0.1,0.1,0c0.3,0.3,0.6,0.4,0.8,0.5s0.3,0.1,0.5,0c0.1-0.1,0.3-0.3,0.5-0.5l4.3-5.8L150,25.7c0,0-0.1,0-0.2-0.1
		c-0.1,0-0.1-0.1-0.1-0.1v-0.1l5.3-7c0.2-0.3,0.3-0.5,0.3-0.6c0-0.2,0-0.3-0.1-0.5s-0.3-0.4-0.6-0.6v-0.1c0-0.1,0.1-0.1,0.1,0
		l0.7,0.5c0.4,0.3,0.7,0.5,0.9,0.7c0.3,0.2,0.6,0.5,1,0.7l0.6,0.4V19c0,0.1-0.1,0.1-0.1,0c-0.3-0.3-0.6-0.4-0.8-0.5s-0.3-0.1-0.5,0
		c-0.1,0.1-0.3,0.2-0.5,0.5l-4.4,5.8l10.7-2.8c0.1,0,0.1,0,0.2,0.1c0.1,0,0.1,0.1,0.1,0.1v0.1l-5.3,7c-0.2,0.3-0.3,0.5-0.3,0.6
		c0,0.2,0,0.3,0.1,0.5s0.3,0.4,0.7,0.6C157.7,31.1,157.7,31.1,157.7,31.2z"/>
	<path d="M172.1,31.5c0.3,0.4,0.5,0.8,0.6,1.2c0,0.1,0,0.2,0,0.2c0,0.1,0,0.1-0.1,0.2l-1.2,1.4h-0.1c0,0-0.1-0.1,0-0.1
		c0.4-0.8,0.5-1.5,0.4-2.2c-0.2-0.7-0.6-1.4-1.2-2.1c-0.6-0.6-1.2-0.9-1.8-1.1c-0.7-0.2-1.3-0.1-2,0.1s-1.3,0.6-1.9,1.2
		c-0.7,0.7-1.2,1.5-1.5,2.4c-0.3,0.9-0.4,1.7-0.3,2.5c0.1,0.8,0.5,1.5,1,2.1c0.5,0.5,1.2,0.9,1.9,1s1.5,0,2.3-0.4c0,0,0,0,0.1,0
		c0,0,0,0,0,0.1c0,0,0,0,0,0.1l-1.5,1.2c-0.1,0.1-0.2,0.1-0.2,0.1s-0.1,0-0.2,0c-1-0.4-1.8-1-2.6-1.7c-0.9-0.9-1.5-1.9-1.7-2.8
		c-0.2-1-0.2-1.9,0.1-2.8s0.7-1.6,1.4-2.2c0.7-0.7,1.5-1.1,2.5-1.3c0.9-0.2,1.9-0.1,2.8,0.3c0.9,0.3,1.8,0.9,2.5,1.6
		C171.5,30.6,171.8,31,172.1,31.5z"/>
	<path d="M175.2,46.3c-0.5,0.4-1,0.6-1.5,0.6c-0.5,0.1-1.1,0-1.6-0.3c-0.5-0.2-1-0.6-1.3-1.1c-0.2-0.2-0.4-0.5-0.6-0.8
		c-0.1-0.1-0.2-0.3-0.3-0.5s-0.3-0.4-0.5-0.6l-0.7-0.8c-0.1-0.2-0.3-0.4-0.5-0.7c0,0,0,0,0.1-0.1c0.1,0,0.1-0.1,0.1,0
		c0.2,0.3,0.4,0.5,0.6,0.6c0.1,0.1,0.3,0.2,0.5,0.1c0.2,0,0.4-0.2,0.6-0.4l5.9-4.5c0.3-0.2,0.4-0.4,0.5-0.5s0.1-0.3,0-0.5
		s-0.2-0.4-0.4-0.7V36c0.1,0,0.1,0,0.1,0l0.4,0.6c0.3,0.4,0.5,0.7,0.7,0.9c0.2,0.3,0.4,0.6,0.8,1l0.5,0.6v0.1c-0.1,0-0.1,0-0.1,0
		c-0.3-0.3-0.5-0.5-0.6-0.7c-0.2-0.1-0.3-0.2-0.5-0.1c-0.2,0-0.4,0.2-0.6,0.4l-2.5,1.9c0.5,0.4,0.9,0.9,1.2,1.3
		C176.6,43.8,176.6,45.2,175.2,46.3z M172.3,46.2c0.5,0.1,1.1-0.2,1.8-0.7c0.7-0.6,1.2-1.1,1.2-1.7c0.1-0.6-0.1-1.2-0.6-1.8
		c-0.2-0.3-0.5-0.6-0.9-1l-3.1,2.3c-0.3,0.2-0.4,0.5-0.5,0.7s0.1,0.6,0.5,1.1C171.3,45.8,171.8,46.1,172.3,46.2z"/>
	<path d="M184.1,58.5c-0.2,0.6-0.6,1.1-1.2,1.4c-0.5,0.3-1.1,0.4-1.6,0.3s-1.1-0.3-1.6-0.7s-0.9-0.9-1.2-1.5
		c-0.2-0.4-0.4-0.8-0.5-1.2s-0.1-0.8-0.1-1.1c0-0.1,0-0.2,0-0.2s0.1-0.1,0.2-0.1l1.6-1h0.1v0.1c-0.5,0.3-0.8,0.7-1,1.2
		c-0.2,0.4-0.3,0.9-0.3,1.3c0,0.4,0.1,0.8,0.3,1.2c0.3,0.6,0.8,1,1.3,1.1c0.6,0.1,1.2,0,1.8-0.4c0.8-0.4,1.2-0.9,1.4-1.5
		s0.1-1.3-0.4-2.1c0,0,0-0.1,0.1-0.1s0.1,0,0.1,0c0.4,0.7,0.8,1.2,1.4,1.4c0.5,0.2,1.1,0.1,1.8-0.2c0.6-0.3,1.1-0.7,1.3-1.2
		s0.2-1-0.1-1.5c-0.2-0.5-0.7-0.8-1.3-1s-1.3-0.2-2.1,0c0,0,0,0-0.1,0c0,0,0,0,0-0.1c0,0,0,0,0-0.1l1.8-0.7c0.1,0,0.2-0.1,0.3-0.1
		c0,0,0.1,0,0.2,0.1c0.6,0.6,1.1,1.3,1.5,2c0.4,0.8,0.6,1.6,0.4,2.2c-0.1,0.6-0.5,1.1-1,1.4c-0.5,0.3-1.1,0.3-1.7,0.1
		c-0.6-0.2-1.2-0.5-1.6-0.9C184.2,57.2,184.2,57.9,184.1,58.5z"/>
	<path d="M185.3,74.1c-0.1,0-0.1,0-0.1,0c-0.1-0.2-0.2-0.5-0.3-0.9s-0.2-0.7-0.3-0.9c-0.1-0.2-0.2-0.5-0.3-0.9
		c-0.1-0.3-0.2-0.6-0.3-0.7c0,0,0-0.1,0.1-0.1s0.1,0,0.1,0c0.1,0.4,0.3,0.6,0.4,0.7c0.1,0.1,0.3,0.2,0.4,0.1
		c0.2-0.1,0.4-0.2,0.6-0.5l2.2-2.3l-1.3-3.6l-2.4-0.2c-0.3,0-0.6,0-0.9,0.1c-0.6,0.2-0.8,0.8-0.4,1.8c0,0.1,0,0.1-0.1,0.1
		s-0.1,0-0.1,0c-0.1-0.2-0.2-0.4-0.3-0.8s-0.2-0.7-0.3-1s-0.2-0.6-0.4-0.9c-0.1-0.3-0.2-0.5-0.3-0.8c0,0,0-0.1,0.1-0.1s0.1,0,0.1,0
		c0.1,0.3,0.2,0.5,0.4,0.7c0.2,0.2,0.4,0.3,0.8,0.4c0.3,0.1,0.8,0.1,1.4,0.2l8.6,0.5c0,0,0.1,0,0.1,0.1s0,0.1,0,0.1l-6.2,6.3
		c-0.6,0.6-1,1.1-1.2,1.4C185.3,73.3,185.3,73.7,185.3,74.1C185.4,74,185.4,74.1,185.3,74.1z M186.9,65.1l1.2,3.3l3-3.1L186.9,65.1z
		"/>
	<path d="M188,87c-0.1,0-0.1,0-0.1,0c-0.1-0.3-0.1-0.6-0.1-0.8l-0.2-1.1l-0.3-1.2c0-0.2-0.1-0.4-0.2-0.7c0,0,0-0.1,0.1-0.1
		s0.1,0,0.1,0c0.1,0.4,0.2,0.7,0.3,0.9c0.1,0.2,0.2,0.3,0.4,0.3s0.4,0,0.7,0l3.7-0.7l-1.2-5.9l-3.7,0.7c-0.3,0.1-0.5,0.1-0.7,0.2
		c-0.1,0.1-0.2,0.2-0.2,0.4c0,0.2,0,0.5,0.1,0.9c0,0,0,0-0.1,0.1c-0.1,0-0.1,0-0.1,0c-0.1-0.3-0.1-0.6-0.1-0.8l-0.2-1.2l-0.2-1.1
		c0-0.2-0.1-0.5-0.2-0.8c0,0,0,0,0.1,0s0.1,0,0.1,0c0.1,0.4,0.2,0.7,0.3,0.9c0.1,0.2,0.2,0.3,0.4,0.3s0.4,0,0.7,0l7.3-1.4
		c0.3-0.1,0.5-0.1,0.7-0.2c0.1-0.1,0.2-0.2,0.2-0.4c0-0.2,0-0.5-0.1-0.9c0,0,0,0,0.1-0.1s0.1,0,0.1,0l0.1,0.8
		c0.1,0.4,0.1,0.8,0.2,1.1c0.1,0.3,0.2,0.7,0.3,1.2l0.2,0.8c0,0,0,0-0.1,0s-0.1,0-0.1,0c-0.1-0.4-0.2-0.7-0.3-0.9
		c-0.1-0.2-0.2-0.3-0.4-0.3s-0.4,0-0.7,0l-3.2,0.6l1.2,5.9l3.2-0.6c0.3-0.1,0.5-0.1,0.7-0.2s0.2-0.2,0.2-0.5s0-0.5-0.1-0.9
		c0,0,0-0.1,0.1-0.1s0.1,0,0.1,0l0.1,0.7c0.1,0.5,0.1,0.9,0.2,1.2c0.1,0.3,0.1,0.7,0.3,1.1l0.2,0.8c0,0,0,0.1-0.1,0.1s-0.1,0-0.1,0
		c-0.1-0.4-0.2-0.7-0.3-0.9c-0.1-0.2-0.2-0.3-0.4-0.3s-0.4,0-0.7,0l-7.3,1.4c-0.3,0.1-0.5,0.1-0.7,0.2c-0.1,0.1-0.2,0.2-0.2,0.4
		C188,86.3,188,86.6,188,87C188.1,87,188.1,87,188,87z"/>
	<path d="M188.7,98.2L188.7,98.2c-0.1-0.4-0.1-0.7-0.1-0.9v-1.1l-0.1-1.1c0-0.2,0-0.5-0.1-0.8c0,0,0,0,0.1,0s0.1,0,0.1,0
		c0,0.4,0.1,0.7,0.1,0.9c0.1,0.2,0.2,0.3,0.3,0.4c0.2,0.1,0.4,0.1,0.7,0.1l3.9-0.2c0-0.3-0.1-0.6-0.3-0.9c-0.2-0.2-0.4-0.5-0.8-0.8
		c-0.4-0.3-0.9-0.6-1.6-0.9c-0.9-0.5-1.6-0.8-2-1.1s-0.6-0.4-0.7-0.5c-0.1-0.1-0.1-0.2-0.1-0.4l-0.1-1.7c0,0,0,0,0.1-0.1
		c0.1,0,0.1,0,0.1,0c0,0.4,0.2,0.7,0.4,1s0.5,0.5,0.9,0.8c0.4,0.2,0.9,0.6,1.7,0.9c0.7,0.4,1.2,0.7,1.6,1.1c0.3,0.4,0.6,0.8,0.7,1.2
		c0-1,0.2-1.7,0.6-2.2c0.4-0.5,0.9-0.8,1.6-0.8c0.5,0,0.9,0.1,1.3,0.3c0.4,0.2,0.7,0.6,0.9,1s0.4,0.9,0.4,1.5c0,0.2,0,0.5,0,0.9
		c0,0.1,0,0.3,0,0.5s0,0.4,0,0.6c0,0.3,0,0.7,0.1,1.1l0.1,0.8c0,0,0,0-0.1,0s-0.1,0-0.1,0c0-0.4-0.1-0.7-0.1-0.9
		c-0.1-0.2-0.2-0.3-0.3-0.4c-0.2-0.1-0.4-0.1-0.7-0.1l-7.4,0.4c-0.3,0-0.6,0.1-0.7,0.1c-0.2,0.1-0.2,0.2-0.3,0.4
		S188.8,97.8,188.7,98.2C188.8,98.2,188.8,98.2,188.7,98.2z M194.5,92.9c-0.4,0.5-0.6,1.1-0.6,1.9c0,0.1,0,0.3,0.1,0.5l3.2-0.2
		c0.4,0,0.7-0.2,0.9-0.4c0.2-0.3,0.2-0.6,0.2-0.9c-0.1-1.2-0.7-1.7-2-1.7C195.5,92.2,194.9,92.4,194.5,92.9z"/>
	<path d="M197.7,102.6c-0.3-0.4-0.9-0.7-1.7-0.9c0,0,0,0,0-0.1s0-0.1,0-0.1c0.3,0.1,0.8,0.1,1.4,0.2c0.7,0.1,1.2,0.2,1.5,0.2
		c0.1,0,0.1,0,0.1,0.1s0,0.1-0.1,0.1c-0.2,0-0.4,0.3-0.4,0.8c-0.1,0.9-0.2,2-0.3,3.2c0,0.6-0.1,1.3-0.1,2l-0.1,1.1
		c0,0.4,0,0.7,0,0.9c0,0.2,0.1,0.3,0.3,0.4c0,0,0.1,0,0.1,0.1s0,0.1-0.1,0.1c-0.3-0.1-0.8-0.1-1.4-0.2c-0.6-0.1-1.2-0.1-1.6-0.2
		c0,0,0,0,0-0.1s0-0.1,0-0.1c0.8,0,1.4-0.1,1.8-0.4c0.4-0.3,0.6-0.8,0.6-1.5c0-0.4,0-0.7,0-0.9c0-0.2-0.1-0.3-0.2-0.4
		c-0.1-0.1-0.4-0.1-0.7-0.2l-7.4-0.5c-0.3,0-0.6,0-0.7,0.1c-0.2,0.1-0.3,0.2-0.3,0.4c-0.1,0.2-0.1,0.5-0.2,1c0,0,0,0-0.1,0
		s-0.1,0-0.1,0c0-0.4,0.1-0.7,0.1-0.9l0.1-1.3l0.1-1.2c0-0.2,0-0.5,0-0.9c0,0,0,0,0.1,0s0.1,0,0.1,0c0,0.4,0,0.8,0,1
		s0.1,0.4,0.3,0.5c0.1,0.1,0.4,0.1,0.7,0.2l7.4,0.5c0.3,0,0.5,0,0.7-0.1c0.1-0.1,0.2-0.2,0.3-0.4c0.1-0.2,0.1-0.5,0.1-0.9
		C198.2,103.5,198,103,197.7,102.6z"/>
	<path d="M185.4,123.7C185.3,123.7,185.3,123.7,185.4,123.7c0-0.4,0.1-0.7,0.1-0.8l0.3-1.1l0.2-1.2c0-0.2,0.1-0.4,0.1-0.8
		c0,0,0,0,0.1,0s0.1,0,0.1,0.1c-0.1,0.4-0.1,0.7-0.1,0.9s0.1,0.3,0.2,0.4c0.1,0.1,0.4,0.2,0.7,0.2l7,1.5l-7-8.5c0,0,0-0.1,0-0.2
		s0-0.1,0.1-0.2l0.1-0.1l8.6,1.9c0.3,0.1,0.5,0.1,0.7,0c0.2,0,0.3-0.1,0.4-0.3c0.1-0.2,0.2-0.4,0.3-0.8c0,0,0,0,0.1,0s0.1,0,0.1,0.1
		l-0.2,0.8c-0.1,0.5-0.2,0.8-0.3,1.1c-0.1,0.3-0.2,0.8-0.2,1.2l-0.1,0.7c0,0,0,0-0.1,0s-0.1,0-0.1-0.1c0.1-0.4,0.1-0.7,0.1-0.9
		s-0.1-0.3-0.2-0.4c-0.1-0.1-0.4-0.2-0.7-0.3l-7.1-1.6l7,8.6c0,0,0,0.1,0,0.2s0,0.1-0.1,0.2s-0.1,0.1-0.1,0.1l-8.5-1.9
		c-0.3-0.1-0.6-0.1-0.7,0c-0.2,0-0.3,0.1-0.4,0.3c-0.1,0.2-0.2,0.5-0.3,0.8C185.5,123.7,185.4,123.7,185.4,123.7z"/>
	<path d="M181.5,134.3C181.5,134.2,181.4,134.2,181.5,134.3c0-0.4,0.1-0.7,0.2-0.8l0.4-1l0.4-1.1c0.1-0.2,0.1-0.4,0.3-0.8
		c0,0,0,0,0.1,0s0.1,0,0.1,0.1c-0.1,0.4-0.2,0.7-0.2,0.8c0,0.2,0,0.3,0.2,0.5s0.3,0.2,0.6,0.3l3.6,1.4c0.1-0.3,0.1-0.6,0.1-0.9
		c0-0.3-0.2-0.6-0.4-1s-0.6-0.9-1.1-1.5c-0.7-0.8-1.1-1.4-1.4-1.8s-0.4-0.6-0.4-0.8c0-0.1,0-0.3,0-0.4l0.6-1.6c0,0,0,0,0.1,0
		s0.1,0,0.1,0.1c-0.1,0.3-0.1,0.7,0,1s0.3,0.7,0.5,1.1c0.3,0.4,0.6,0.9,1.2,1.5c0.5,0.6,0.9,1.2,1,1.6c0.2,0.5,0.2,0.9,0.2,1.4
		c0.4-0.9,0.9-1.5,1.5-1.8s1.2-0.4,1.8-0.1c0.4,0.2,0.8,0.4,1.1,0.8c0.3,0.4,0.4,0.8,0.4,1.3s0,1-0.2,1.5c-0.1,0.2-0.2,0.5-0.3,0.8
		c-0.1,0.1-0.1,0.3-0.2,0.4c-0.1,0.2-0.1,0.3-0.2,0.5c-0.1,0.3-0.2,0.6-0.4,1.1l-0.3,0.8c0,0,0,0-0.1,0s-0.1,0-0.1-0.1
		c0.1-0.4,0.2-0.7,0.2-0.9s0-0.3-0.2-0.5c-0.1-0.1-0.3-0.2-0.6-0.3l-6.9-2.6c-0.3-0.1-0.5-0.2-0.7-0.2s-0.3,0.1-0.4,0.3
		C181.9,133.6,181.8,133.9,181.5,134.3C181.6,134.3,181.6,134.3,181.5,134.3z M188.9,131.7c-0.6,0.2-1,0.7-1.3,1.5
		c0,0.1-0.1,0.3-0.2,0.5l3,1.1c0.4,0.1,0.7,0.1,1,0c0.2-0.2,0.4-0.4,0.6-0.8c0.4-1.1,0-1.9-1.1-2.3
		C190.2,131.5,189.5,131.4,188.9,131.7z"/>
	<path d="M181.6,134.3C181.6,134.3,181.7,134.2,181.6,134.3c0.2,0,0.2,0.1,0.1,0.1"/>
	<path d="M169.1,155.2C169.1,155.2,169,155.1,169.1,155.2c0.2-0.4,0.2-0.6,0.4-0.7l0.6-0.9l0.6-1c0.1-0.2,0.3-0.4,0.4-0.6
		c0,0,0,0,0.1,0l0.1,0.1c-0.3,0.3-0.3,0.6-0.4,0.7c-0.1,0.2-0.1,0.3,0,0.5c0.1,0.2,0.2,0.3,0.5,0.5l6.1,4.2c0.3,0.2,0.5,0.4,0.6,0.3
		s0.2,0,0.3-0.1c0.1-0.1,0.3-0.3,0.5-0.6l1.9-2.7c0.3-0.3,0.4-0.6,0.4-0.7c0.1-0.1,0.1-0.3,0-0.4c-0.1-0.1-0.2-0.3-0.5-0.5l-6.1-4.2
		c-0.3-0.2-0.5-0.3-0.6-0.3c-0.2,0-0.3,0-0.5,0.1s-0.4,0.3-0.5,0.6c0,0,0,0-0.1,0c-0.1,0-0.1-0.1-0.1-0.1c0.2-0.3,0.4-0.5,0.4-0.6
		l0.7-1l0.6-1c0.1-0.2,0.3-0.4,0.4-0.6c0,0,0,0,0.1,0l0.1,0.1c-0.3,0.3-0.3,0.6-0.4,0.7c-0.1,0.2-0.1,0.3,0,0.5s0.2,0.3,0.5,0.5
		l6,4.1c0.3,0.2,0.5,0.3,0.7,0.3c0.2,0.1,0.4,0,0.6-0.1c0.2-0.1,0.4-0.3,0.5-0.6c0,0,0,0,0.1,0l0.1,0.1c-0.2,0.3-0.4,0.6-0.6,0.9
		c-0.8,1.2-1.7,2.4-2.5,3.6c-0.8,1.2-1.7,2.5-2.7,3.9l-0.4,0.4c0,0,0,0-0.1,0l-0.1-0.1c0.2-0.3,0.3-0.6,0.4-0.8
		c0.1-0.2,0-0.4-0.2-0.6c-0.1-0.2-0.3-0.4-0.5-0.6l-6-4.1c-0.2-0.2-0.5-0.3-0.6-0.3c-0.2,0-0.3,0-0.5,0.1
		C169.7,154.7,169.5,154.9,169.1,155.2C169.2,155.3,169.2,155.2,169.1,155.2z"/>
	<path d="M165.8,159.6c-0.2-0.1-0.4,0-0.6,0.2c-0.2,0.1-0.6,0.4-0.9,0.8l-0.1,0c0,0-0.1-0.1,0-0.1c0.3-0.3,0.6-0.5,0.7-0.8l0.9-1
		l0.7-0.8c0.1-0.1,0.3-0.3,0.5-0.6l0.1,0c0,0,0.1,0.1,0,0.1c-0.3,0.3-0.5,0.5-0.5,0.6c-0.1,0.2-0.1,0.3-0.1,0.5
		c0.1,0.2,0.2,0.4,0.4,0.6l5.5,5.1c0.2,0.2,0.4,0.4,0.5,0.5c0.1,0.1,0.3,0.1,0.5,0c0.2-0.1,0.4-0.2,0.7-0.6l0.1,0c0,0,0.1,0.1,0,0.1
		l-0.6,0.5c-0.3,0.3-0.6,0.5-0.7,0.8c-0.2,0.2-0.4,0.4-0.5,0.7c-0.1,0.1-0.2,0.2-0.4,0.4c-0.2,0.2-0.4,0.4-0.5,0.5
		c-0.6,0.8-1.4,1.1-2.1,1.3c-0.7,0.2-1.4-0.1-2.1-0.7c-0.5-0.5-0.8-1-0.9-1.6c-0.2-0.6-0.1-1.2,0.2-1.7c0.2-0.5,0.5-1,0.9-1.5
		c0.2-0.2,0.4-0.4,0.6-0.5c0,0,0,0,0.1,0l0,0.1l0,0.1c-0.1,0.1-0.3,0.2-0.5,0.3c-0.5,0.4-0.7,1.1-0.7,1.7c0.1,0.6,0.3,1.3,1,1.8
		c0.6,0.5,1.3,0.9,1.9,0.8c0.6,0,1.2-0.3,1.7-0.8c0.3-0.2,0.4-0.4,0.4-0.6c0.1-0.1,0.1-0.3,0.1-0.5c-0.1-0.2-0.2-0.4-0.4-0.6l-5.3-5
		C166.2,159.8,166,159.6,165.8,159.6z"/>
	<path d="M158.5,166.8c0.9-0.2,1.8-0.1,2.6,0.3c0.8,0.3,1.6,0.9,2.1,1.6c0.7,0.8,1.1,1.7,1.1,2.7c0.1,1-0.1,1.9-0.6,2.8
		c-0.4,0.8-1,1.6-1.7,2.2c-0.7,0.7-1.6,1-2.5,1.1c-0.9,0.1-1.7,0-2.5-0.3s-1.5-0.9-2-1.5c-0.7-0.7-0.9-1.6-1.1-2.5
		c-0.2-0.9,0-1.9,0.4-2.8c0.3-0.9,1-1.7,1.7-2.4C156.7,167.3,157.6,166.9,158.5,166.8z M154.6,170.2c-0.2,0.6-0.2,1.3,0,2
		c0.2,0.7,0.5,1.5,1.2,2.2c0.7,0.7,1.3,1.3,2.2,1.7c0.7,0.3,1.5,0.5,2.3,0.4s1.6-0.4,2.2-1c0.8-0.8,1.4-1.6,1.4-2.6c0-1-0.4-2-1.3-3
		c-0.7-0.7-1.3-1.4-2.2-1.7c-0.8-0.4-1.7-0.6-2.5-0.5s-1.6,0.3-2.1,0.9C155.2,169.1,154.8,169.6,154.6,170.2z"/>
	<path d="M149.3,173.5C149.3,173.6,149.3,173.6,149.3,173.5c-0.4,0.3-0.6,0.4-0.6,0.7c-0.1,0.1-0.2,0.3-0.2,0.5
		c0,0.2,0.1,0.4,0.3,0.7l4,6.3c0.1,0.3,0.3,0.5,0.4,0.6c0.1,0.1,0.3,0.1,0.5,0.1c0.2,0,0.5-0.1,0.8-0.4c0,0,0,0,0.1,0.1
		c0,0.1,0,0.1,0,0.1l-5.8,3.6c-0.1,0-0.2,0-0.2-0.1l-1.2-1.8c0,0,0-0.1,0.1-0.1c0.1,0,0.1,0,0.1,0c0.3,0.5,0.9,0.8,1.3,0.9
		c0.5,0.2,0.9,0,1.4-0.3l1-0.6c0.4-0.2,0.7-0.5,0.7-0.7c0.1-0.2,0.1-0.5-0.2-0.8l-3.8-6.2c-0.2-0.3-0.3-0.5-0.5-0.6
		c-0.2-0.1-0.4-0.1-0.6,0c-0.3,0.1-0.6,0.3-1.2,0.6c0,0,0,0-0.1-0.1c0-0.1,0-0.1,0-0.1c0.4-0.2,0.7-0.5,0.9-0.6l1.2-0.8l1-0.6
		C148.6,173.7,148.9,173.5,149.3,173.5C149.2,173.4,149.2,173.4,149.3,173.5z"/>
	<path d="M138.5,180.2c-0.1-0.1-0.3-0.2-0.6,0s-0.7,0.2-1.2,0.4c0,0-0.1,0-0.1-0.1c0-0.1,0-0.1,0-0.1c0.4-0.2,0.7-0.4,1-0.4l1.3-0.6
		l1-0.5c0.2-0.1,0.4-0.2,0.8-0.4c0,0,0.1,0,0.1,0.1c0,0.1,0,0.1,0,0.1c-0.4,0.1-0.6,0.4-0.8,0.5c-0.2,0.1-0.2,0.3-0.2,0.4
		c0,0.1,0,0.4,0.3,0.7l3.2,6.7c0.1,0.3,0.2,0.5,0.4,0.6c0.1,0.1,0.3,0.2,0.5,0.2c0.2,0,0.5-0.1,0.8-0.3c0,0,0.1,0,0.1,0.1
		c0,0.1,0,0.1,0,0.1l-0.8,0.4c-0.4,0.1-0.8,0.4-1,0.4c-0.2,0.1-0.5,0.2-0.8,0.5c-0.1,0-0.3,0.1-0.6,0.3c-0.3,0.1-0.5,0.2-0.7,0.4
		c-0.9,0.4-1.8,0.6-2.5,0.4c-0.7-0.1-1.3-0.6-1.7-1.5c-0.3-0.6-0.4-1.3-0.3-1.8c0.1-0.6,0.4-1.1,0.8-1.6s0.8-0.8,1.4-1
		c0.3-0.1,0.5-0.2,0.8-0.3c0,0,0,0,0.1,0.1l0,0.1c0,0,0,0.1,0,0c-0.2,0-0.3,0.1-0.5,0.1c-0.6,0.3-1,0.7-1.2,1.3
		c-0.2,0.6-0.2,1.3,0.2,2.1c0.4,0.8,0.8,1.2,1.4,1.5c0.6,0.2,1.2,0.2,1.9-0.1c0.3-0.1,0.6-0.3,0.7-0.4c0.1-0.1,0.2-0.2,0.2-0.4
		c0-0.2,0-0.4-0.3-0.7l-3.2-6.6C138.9,180.5,138.7,180.3,138.5,180.2z"/>
	<path d="M121.8,186.1C121.8,186,121.8,186,121.8,186.1c0.2-0.1,0.5-0.2,0.9-0.4c0.4-0.1,0.7-0.2,0.9-0.3c0.2-0.1,0.5-0.1,0.9-0.3
		c0.3-0.1,0.6-0.3,0.8-0.3c0,0,0.1,0,0.1,0.1c0,0.1,0,0.1,0,0.1c-0.4,0.1-0.6,0.3-0.8,0.4c-0.1,0.1-0.2,0.2-0.2,0.4
		c0,0.2,0.2,0.4,0.4,0.6l2.2,2.3l3.6-1.2l0.2-2.4c0.1-0.3,0-0.6-0.1-0.9c-0.3-0.7-0.8-0.8-1.8-0.4c-0.1,0-0.1,0-0.1-0.1
		c0-0.1,0-0.1,0.1-0.1c0.2,0,0.5-0.1,0.8-0.3c0.4-0.1,0.7-0.2,1-0.3c0.3-0.1,0.6-0.3,0.9-0.4c0.3-0.1,0.6-0.3,0.8-0.3
		c0.1,0,0.1,0,0.1,0.1c0,0.1,0,0.1-0.1,0.1c-0.3,0.1-0.5,0.2-0.7,0.4c-0.2,0.1-0.3,0.4-0.3,0.7c-0.1,0.3-0.1,0.8-0.2,1.4l-0.8,8.6
		l-0.1,0.1c-0.1,0-0.1,0-0.1,0l-6.2-6.3c-0.6-0.7-1.1-1-1.4-1.2C122.6,186,122.2,186,121.8,186.1
		C121.9,186.2,121.8,186.1,121.8,186.1z M130.8,187.8l-3.3,1.1l3,3.1L130.8,187.8z"/>
	<path d="M107.4,188.7C107.4,188.6,107.4,188.6,107.4,188.7c0.4-0.1,0.7-0.2,0.9-0.2l1.1-0.2l1.1-0.2c0.2,0,0.4-0.1,0.7-0.2
		c0,0,0,0,0,0.1s0,0.1,0,0.1c-0.4,0-0.6,0.2-0.8,0.3c-0.2,0.1-0.3,0.2-0.3,0.3c0,0.1,0,0.4,0.1,0.7l1.5,7l2.2-8.8l0.1-0.1
		c0.1,0,0.1,0,0.1,0.1l5.3,7.5l-1-6.5c-0.1-0.6-0.3-1-0.5-1.2c-0.2-0.2-0.6-0.2-1.1-0.2c0,0,0,0,0-0.1s0-0.1,0-0.1
		c0.3,0,0.5,0,0.7-0.1l0.9-0.2l0.9-0.2c0.1,0,0.4,0,0.6-0.2c0,0,0,0,0.1,0.1c0.1,0.1,0,0.1,0,0.1c-0.4,0-0.8,0.3-0.9,0.6
		c-0.2,0.3-0.2,0.7-0.1,1.2l1,7.2c0.4,0.5,0.9,0.6,1.4,0.5c0,0,0,0,0.1,0.1c0,0.1,0,0.1,0,0.1l-0.6,0.1c-0.1,0-0.3,0-0.5,0
		c-0.2,0-0.4,0-0.5,0.1c-0.1,0-0.3,0-0.3,0c-0.1,0-0.3,0-0.3-0.1c0-0.1-0.2-0.3-0.6-0.7l-4.8-6.6l-2.1,8.2c-0.1,0.3-0.2,0.4-0.4,0.4
		c-0.1,0-0.1,0-0.2,0c-0.1,0-0.2,0-0.4,0l-0.8,0.2c-0.1,0-0.3,0-0.5,0.1c0,0,0,0,0-0.1c0-0.1,0-0.1,0-0.1c0.5,0,0.9-0.3,1.1-0.4
		c0.2-0.2,0.3-0.5,0.2-0.9l-1.5-7.2c0-0.3-0.2-0.6-0.3-0.7c-0.1-0.1-0.2-0.2-0.4-0.3C108.1,188.6,107.9,188.7,107.4,188.7
		L107.4,188.7z"/>
	<path d="M92.3,188.8C92.3,188.8,92.3,188.7,92.3,188.8c0.4-0.1,0.7-0.1,0.9-0.1l1.1,0l1.1,0c0.2,0,0.4,0,0.7-0.1c0,0,0,0,0,0.1
		c0,0.1,0,0.1,0,0.1c-0.4,0-0.6,0.1-0.8,0.1c-0.2,0-0.3,0.1-0.4,0.3c-0.1,0.1-0.1,0.4,0,0.7l0.3,7.1l3.6-8.3l0.1-0.1
		c0.1,0,0.1,0,0.1,0.1l3.9,8.3l0.1-6.6c0-0.6-0.1-1-0.3-1.2c-0.2-0.3-0.5-0.4-1-0.4c0,0,0,0,0-0.1s0-0.1,0-0.1c0.3,0,0.5,0,0.7,0
		l0.9,0l0.9,0c0.2,0,0.4,0,0.6-0.1c0,0,0,0,0,0.1s0,0.1-0.1,0.1c-0.4,0-0.8,0.2-1,0.4c-0.2,0.2-0.3,0.6-0.3,1.2l-0.2,7.2
		c0.3,0.5,0.8,0.7,1.4,0.8c0,0,0,0,0,0.1s0,0.1-0.1,0.1l-0.6,0c-0.1,0-0.3,0-0.5-0.1c-0.2,0-0.4,0-0.5,0c-0.1,0-0.3,0-0.3,0
		c-0.1,0-0.2-0.1-0.3-0.2c-0.1-0.1-0.2-0.3-0.4-0.7l-3.5-7.3l-3.4,7.8c-0.1,0.3-0.3,0.4-0.5,0.4c-0.1,0-0.1,0-0.2,0
		c-0.1,0-0.2,0-0.4-0.1l-0.8,0c-0.1,0-0.3,0-0.5,0c0,0,0,0,0-0.1s0-0.1,0-0.1c0.5,0,0.9-0.1,1.2-0.2c0.2-0.1,0.4-0.4,0.3-0.9
		l-0.3-7.4c0-0.3-0.1-0.6-0.2-0.7c-0.1-0.2-0.2-0.3-0.3-0.3C93,188.9,92.8,189,92.3,188.8C92.3,188.9,92.3,188.9,92.3,188.8z"/>
	<path d="M77.7,186.4L77.7,186.4c0.4,0,0.6,0,0.8,0l1.1,0.2l1.1,0.2c0.2,0,0.5,0.1,0.8,0.1c0,0,0,0,0,0.1c0,0.1,0,0.1-0.1,0.1
		c-0.4-0.1-0.7,0-0.9,0c-0.2,0-0.3,0.1-0.4,0.2c-0.1,0.1-0.2,0.4-0.2,0.7l-1.3,7.3c-0.1,0.3-0.1,0.5,0,0.7c0,0.2,0.1,0.3,0.3,0.4
		c0.2,0.1,0.4,0.2,0.8,0.2c0,0,0,0,0,0.1s0,0.1-0.1,0.1l-0.8-0.1c-0.4-0.1-0.8-0.1-1.1-0.2c-0.3-0.1-0.7-0.1-1.1-0.2l-0.8-0.1
		c0,0,0,0,0-0.1c0-0.1,0-0.1,0.1-0.1c0.4,0.1,0.7,0,0.9,0c0.2,0,0.3-0.1,0.4-0.2c0.1-0.1,0.2-0.4,0.2-0.7l1.3-7.2
		c0.1-0.3,0-0.6,0-0.7c0-0.2-0.1-0.3-0.3-0.4S78.1,186.6,77.7,186.4C77.7,186.5,77.7,186.5,77.7,186.4z M81.9,190.2
		c0.1-0.6,0.3-1.1,0.7-1.6c0.4-0.4,0.8-0.7,1.3-0.9c0.6-0.2,1.1-0.2,1.8-0.1c0.3,0.1,0.6,0.1,1,0.2c0.1,0,0.3,0.1,0.5,0.2
		s0.5,0.1,0.8,0.1l1,0.2c0.2,0,0.5,0.1,0.8,0.1c0,0,0,0,0,0.1s0,0.1-0.1,0.1c-0.4-0.1-0.7,0-0.9,0c-0.2,0-0.3,0.1-0.4,0.2
		c-0.1,0.1-0.2,0.3-0.2,0.7L87,197c-0.1,0.3,0,0.6,0,0.7c0,0.1,0.1,0.3,0.3,0.4c0.2,0.1,0.4,0.2,0.8,0.2c0,0,0,0,0,0.1
		c0,0.1,0,0.1-0.1,0.1l-0.7-0.1c-0.4-0.1-0.8-0.1-1.1-0.2c-0.3-0.1-0.7-0.1-1.2-0.2l-0.8-0.1c0,0,0,0,0-0.1s0-0.1,0.1-0.1
		c0.4,0.1,0.7,0,0.9,0c0.2,0,0.4-0.1,0.5-0.2c0.1-0.1,0.2-0.4,0.2-0.7l0.5-3.2c-0.6,0-1.2-0.1-1.8-0.1
		C82.5,192.9,81.5,191.9,81.9,190.2z M84,188.3c-0.5,0.3-0.7,0.9-0.9,1.7c-0.1,0.9-0.1,1.6,0.3,2.1c0.3,0.5,0.9,0.8,1.7,1
		c0.4,0.1,0.8,0.1,1.3,0.1l0.7-3.8c0.1-0.3,0-0.6-0.2-0.8c-0.1-0.2-0.5-0.4-1-0.4C85.1,187.9,84.4,188,84,188.3z"/>
	<path d="M58.6,182.4c0,0.1,0,0.1,0,0.2l-0.1,0.1l-3.6,0.9h-0.1v-0.1l2.8-1.4l-0.6-3l0,0c0,0,0,0,0.1-0.1h0.1L58.6,182.4z
		 M60.9,183.5c0,0.1,0,0.1,0,0.2c0,0.1-0.1,0.1-0.1,0.1l-3.6,0.9l0,0c0,0,0,0,0-0.1v-0.1l2.8-1.4l-0.6-3.1c0,0,0,0,0.1-0.1h0.1
		L60.9,183.5z"/>
	<path d="M45.1,170.9C45.2,170.8,45.2,170.8,45.1,170.9c0.4,0.1,0.6,0.3,0.8,0.4l0.9,0.6l1,0.7c0.2,0.1,0.4,0.2,0.6,0.4v0.1
		c0,0.1-0.1,0.1-0.1,0.1c-0.3-0.2-0.6-0.4-0.8-0.4c-0.2-0.1-0.3,0-0.5,0c-0.1,0.1-0.3,0.3-0.5,0.5l-2.1,3.1l5,3.3l2.1-3.1
		c0.2-0.3,0.3-0.5,0.3-0.7s0-0.3-0.1-0.5c-0.1-0.1-0.4-0.3-0.7-0.6c0,0,0,0,0-0.1s0.1-0.1,0.1-0.1c0.3,0.2,0.5,0.3,0.7,0.5l1,0.7
		l0.9,0.6c0.2,0.1,0.4,0.2,0.7,0.4c0,0,0,0,0,0.1s-0.1,0.1-0.1,0.1c-0.3-0.2-0.6-0.4-0.8-0.4s-0.4,0-0.5,0c-0.1,0.1-0.3,0.3-0.5,0.5
		l-4.1,6.2c-0.2,0.3-0.3,0.5-0.3,0.6c0,0.2,0,0.3,0.1,0.5s0.4,0.3,0.7,0.6c0,0,0,0,0,0.1s-0.1,0.1-0.1,0.1l-0.7-0.5
		c-0.4-0.3-0.7-0.5-0.9-0.6c-0.3-0.2-0.6-0.4-1-0.7l-0.7-0.4c0,0,0,0,0-0.1s0.1-0.1,0.1-0.1c0.3,0.2,0.6,0.4,0.8,0.4
		c0.2,0.1,0.4,0,0.5-0.1s0.3-0.3,0.5-0.5l1.8-2.7l-5-3.3l-1.8,2.7c-0.2,0.3-0.3,0.5-0.3,0.7s0,0.3,0.1,0.5s0.4,0.4,0.7,0.6v0.1
		c0,0.1-0.1,0.1-0.1,0.1l-0.6-0.4c-0.4-0.3-0.7-0.5-1-0.7c-0.2-0.2-0.6-0.4-1-0.6l-0.7-0.4v-0.1c0-0.1,0.1-0.1,0.1-0.1
		c0.3,0.2,0.6,0.4,0.8,0.4c0.2,0.1,0.4,0,0.5,0c0.1-0.1,0.3-0.3,0.5-0.5l4.1-6.2c0.2-0.3,0.3-0.5,0.3-0.7s0-0.3-0.1-0.5
		C45.6,171.4,45.3,171.2,45.1,170.9L45.1,170.9z"/>
	<path d="M35.1,161.9C35.1,161.9,35.2,161.8,35.1,161.9c0.3,0.1,0.5,0.4,0.8,0.7s0.5,0.5,0.7,0.7s0.4,0.4,0.7,0.6
		c0.3,0.2,0.5,0.4,0.6,0.5v0.1c0,0-0.1,0.1-0.1,0c-0.3-0.3-0.5-0.4-0.7-0.5s-0.3,0-0.4,0.1c-0.1,0.1-0.2,0.3-0.3,0.7l-0.9,3.1
		l2.8,2.6l2.2-1c0.3-0.1,0.6-0.3,0.7-0.5c0.5-0.5,0.3-1.1-0.5-1.8v-0.1c0,0,0.1-0.1,0.1,0c0.1,0.1,0.3,0.3,0.6,0.6s0.5,0.5,0.8,0.7
		c0.2,0.2,0.4,0.4,0.7,0.6c0.3,0.2,0.5,0.4,0.6,0.5v0.1c0,0-0.1,0.1-0.1,0c-0.2-0.2-0.4-0.3-0.7-0.4c-0.2-0.1-0.5,0-0.8,0
		s-0.8,0.3-1.3,0.5l-7.8,3.6c0,0-0.1,0-0.1-0.1s-0.1-0.1-0.1-0.1l2.5-8.5c0.3-0.8,0.4-1.4,0.4-1.8S35.4,162.1,35.1,161.9
		C35,162,35,162,35.1,161.9z M37.9,170.6l-2.6-2.4l-1.2,4.1L37.9,170.6z"/>
	<path d="M21.2,161c-0.3-0.5-0.4-0.9-0.5-1.2c0-0.1,0-0.2,0-0.2s0.1-0.1,0.1-0.2l1.3-1.3h0.1v0.1c-0.5,0.7-0.6,1.5-0.6,2.2
		c0.1,0.7,0.4,1.5,1,2.2c0.5,0.6,1.1,1,1.7,1.2c0.7,0.2,1.3,0.2,2,0.1c0.7-0.2,1.4-0.5,2-1.1c0.8-0.6,1.3-1.4,1.7-2.2
		c0.4-0.8,0.6-1.7,0.5-2.5s-0.3-1.6-0.9-2.2c-0.5-0.6-1.1-1-1.8-1.1c-0.7-0.2-1.5-0.1-2.4,0.2h-0.1v-0.1c0,0,0,0,0-0.1l1.6-1
		c0.1-0.1,0.2-0.1,0.2-0.1s0.1,0,0.2,0.1c0.9,0.5,1.7,1.1,2.4,2c0.8,1,1.3,2,1.5,3s0.1,1.9-0.3,2.7s-0.9,1.5-1.5,2.1
		c-0.8,0.6-1.6,1-2.6,1.1s-1.9-0.1-2.8-0.5s-1.7-1-2.3-1.8C21.8,161.9,21.5,161.5,21.2,161z"/>
	<path d="M17.8,154.8c0.5,0.1,1.1,0,1.9-0.3c0,0,0.1,0,0.1,0.1s0,0.1,0,0.1c-0.3,0.1-0.7,0.3-1.3,0.6c-0.6,0.3-1,0.5-1.3,0.7h-0.1
		c0-0.1,0-0.1,0-0.1c0.2-0.1,0.1-0.4-0.2-0.9c-0.5-0.8-1-1.7-1.7-2.8c-0.3-0.5-0.7-1.1-1.1-1.7l-0.6-0.9c-0.2-0.3-0.4-0.6-0.5-0.7
		c-0.1-0.1-0.3-0.2-0.5-0.1h-0.1v-0.1c0.3-0.1,0.7-0.4,1.3-0.7s1-0.6,1.3-0.8c0,0,0,0,0.1,0.1v0.1c-0.7,0.5-1.1,0.9-1.2,1.4
		s0,1,0.4,1.6c0.2,0.4,0.4,0.6,0.5,0.8c0.1,0.1,0.3,0.2,0.4,0.2c0.2,0,0.4-0.1,0.6-0.3l6.3-3.9c0.3-0.2,0.5-0.3,0.6-0.5
		c0.1-0.1,0.1-0.3,0-0.5s-0.2-0.5-0.5-0.9c0,0,0,0,0.1-0.1s0.1,0,0.1,0c0.2,0.3,0.3,0.6,0.4,0.7l0.7,1.1l0.7,1
		c0.1,0.2,0.3,0.4,0.5,0.8c0,0,0,0-0.1,0.1c-0.1,0-0.1,0-0.1,0c-0.2-0.4-0.4-0.6-0.6-0.8s-0.3-0.2-0.5-0.2s-0.4,0.1-0.7,0.3
		l-6.3,3.9c-0.3,0.2-0.4,0.3-0.5,0.4c-0.1,0.1-0.1,0.3,0,0.5s0.2,0.5,0.4,0.8C16.9,154.4,17.3,154.7,17.8,154.8z"/>
	<path d="M15.9,132c0.1,0,0.1,0,0.1,0c0.1,0.2,0.2,0.5,0.4,0.9c0.2,0.4,0.3,0.7,0.4,0.9s0.2,0.5,0.4,0.8c0.2,0.3,0.3,0.5,0.4,0.7
		c0,0,0,0.1-0.1,0.1s-0.1,0-0.1,0c-0.2-0.4-0.3-0.6-0.4-0.7c-0.1-0.1-0.3-0.1-0.4-0.1c-0.1,0.1-0.3,0.2-0.6,0.5l-2,2.5l1.6,3.5
		L18,141c0.3,0,0.6-0.1,0.9-0.2c0.6-0.3,0.7-0.9,0.3-1.8c0,0,0-0.1,0.1-0.1s0.1,0,0.1,0c0.1,0.2,0.2,0.4,0.3,0.8
		c0.2,0.4,0.3,0.7,0.4,1c0.1,0.2,0.3,0.5,0.4,0.9c0.2,0.3,0.3,0.5,0.4,0.7c0,0,0,0.1-0.1,0.1s-0.1,0-0.1,0c-0.1-0.3-0.3-0.5-0.5-0.6
		s-0.5-0.2-0.8-0.3s-0.8-0.1-1.4-0.1l-8.6,0.2c0,0-0.1,0-0.1-0.1s0-0.1,0-0.1l5.6-6.8c0.6-0.7,0.9-1.2,1-1.5
		C15.9,132.7,15.9,132.4,15.9,132C15.8,132.1,15.8,132,15.9,132z M15.1,141.1l-1.5-3.2l-2.7,3.3L15.1,141.1z"/>
	<path d="M8.7,124.7c0.3-0.6,0.8-1.1,1.5-1.3c0.5-0.2,1.1-0.2,1.6,0c0.5,0.1,1,0.4,1.4,0.8s0.7,0.9,0.9,1.5c0.1,0.3,0.2,0.7,0.3,1.1
		c0,0.1,0.1,0.3,0.1,0.5s0.1,0.4,0.2,0.7l0.3,1c0.1,0.2,0.2,0.5,0.3,0.8c0,0,0,0-0.1,0.1c-0.1,0-0.1,0-0.1,0
		c-0.1-0.4-0.2-0.6-0.3-0.8s-0.2-0.3-0.4-0.3s-0.4,0-0.7,0.1l-7.1,2.2c-0.3,0.1-0.5,0.2-0.6,0.3s-0.2,0.3-0.2,0.4s0.1,0.5,0.2,0.8
		c0,0,0,0.1-0.1,0.1s-0.1,0-0.1,0L5.5,132c-0.1-0.4-0.2-0.8-0.3-1.1c-0.1-0.2-0.1-0.4-0.2-0.5c-0.1-0.2-0.1-0.3-0.2-0.4
		c-0.1-0.3-0.2-0.6-0.3-0.9c-0.3-0.9-0.3-1.6-0.1-2.2c0.2-0.6,0.7-0.9,1.3-1.1c0.5-0.2,1-0.1,1.5,0.1s0.9,0.5,1.3,1
		C8.3,126.1,8.4,125.4,8.7,124.7z M5.1,129.9c0.1,0.1,0.2,0.2,0.4,0.2c0.2,0,0.4,0,0.7-0.1l2.9-0.9l-0.2-0.7
		c-0.2-0.7-0.6-1.2-1.1-1.4c-0.5-0.2-1.1-0.2-1.7,0s-1,0.5-1.2,0.9c-0.2,0.4-0.3,0.9-0.1,1.5C4.9,129.6,5,129.8,5.1,129.9z
		 M12.8,124.5c-0.5-0.2-1.1-0.3-1.8,0c-0.8,0.2-1.3,0.7-1.7,1.2c-0.3,0.6-0.4,1.3-0.2,2.1c0.1,0.3,0.2,0.7,0.4,1.1l3.8-1.2
		c0.3-0.1,0.4-0.2,0.6-0.3c0.1-0.1,0.2-0.3,0.2-0.5s-0.1-0.5-0.2-0.9C13.6,125.3,13.3,124.8,12.8,124.5z"/>
	<path d="M10.3,108.7c0.1,0,0.1,0,0.1,0c0.1,0.3,0.1,0.6,0.1,0.8l0.2,1.1l0.2,1.2c0,0.2,0.1,0.4,0.1,0.7c0,0,0,0.1-0.1,0.1
		s-0.1,0-0.1,0c-0.1-0.4-0.1-0.7-0.2-0.9s-0.2-0.3-0.4-0.3s-0.4,0-0.7,0L5.8,112l1,5.9l3.7-0.6c0.3-0.1,0.5-0.1,0.7-0.2
		s0.2-0.2,0.2-0.4c0-0.2,0-0.5-0.1-0.9c0,0,0,0,0.1,0s0.1,0,0.1,0c0.1,0.3,0.1,0.6,0.1,0.8l0.2,1.2l0.2,1.1c0,0.2,0.1,0.5,0.1,0.8
		c0,0,0,0-0.1,0s-0.1,0-0.1,0c-0.1-0.4-0.1-0.7-0.2-0.9c-0.1-0.2-0.2-0.3-0.4-0.3s-0.4,0-0.7,0l-7.3,1.2c-0.3,0.1-0.5,0.1-0.7,0.2
		c-0.1,0.1-0.2,0.2-0.2,0.4c0,0.2,0,0.5,0.1,0.9c0,0,0,0-0.1,0s-0.1,0-0.1,0l-0.1-0.8c-0.1-0.4-0.1-0.8-0.1-1.1
		C2,119,2,118.6,1.9,118.1l-0.1-0.8c0,0,0,0,0.1,0s0.1,0,0.1,0c0.1,0.4,0.1,0.7,0.2,0.9c0.1,0.2,0.2,0.3,0.4,0.3s0.4,0,0.7,0
		l3.3-0.5l-1-5.9l-3.3,0.5c-0.3,0.1-0.5,0.1-0.7,0.2c-0.1,0.1-0.2,0.2-0.3,0.4c0,0.2,0,0.5,0.1,0.9c0,0,0,0.1-0.1,0.1s-0.1,0-0.1,0
		l-0.1-0.7C1,113,1,112.6,0.9,112.3c0-0.3-0.1-0.7-0.2-1.1l-0.1-0.8c0,0,0-0.1,0.1-0.1s0.1,0,0.1,0c0.1,0.4,0.1,0.7,0.2,0.9
		c0.1,0.2,0.2,0.3,0.4,0.3s0.4,0,0.7,0l7.3-1.2c0.3-0.1,0.5-0.1,0.7-0.2c0.1-0.1,0.2-0.2,0.2-0.4C10.4,109.5,10.3,109.2,10.3,108.7
		C10.3,108.8,10.3,108.7,10.3,108.7z"/>
	<path d="M10,94.8C10.1,94.8,10.1,94.8,10,94.8c0.1,0.4,0.1,0.7,0.1,0.9v1.2v1.2c0,0.2,0,0.5,0,0.8c0,0,0,0-0.1,0s-0.1,0-0.1,0
		c0-0.4,0-0.7-0.1-0.9c-0.1-0.2-0.2-0.3-0.3-0.4s-0.4-0.1-0.7-0.1l-7.2,0.1l8.7,6.7c0,0,0,0.1,0,0.2s0,0.1,0,0.2s0,0.1-0.1,0.1
		l-8.8,0.1c-0.3,0-0.6,0-0.7,0.1s-0.3,0.2-0.3,0.4c-0.1,0.2-0.1,0.5-0.1,0.9c0,0,0,0-0.1,0s-0.1,0-0.1,0v-0.8c0-0.5,0-0.8,0-1.1
		c0-0.4,0-0.8,0-1.2v-0.8c0,0,0,0,0.1,0s0.1,0,0.1,0c0,0.4,0,0.7,0.1,0.9c0.1,0.2,0.2,0.3,0.3,0.4c0.2,0.1,0.4,0.1,0.7,0.1l7.3-0.1
		L0,96.9c0,0-0.1-0.1-0.1-0.2s0-0.1,0-0.2c0,0,0-0.1,0.1-0.1l8.7-0.1c0.3,0,0.6,0,0.7-0.1s0.3-0.2,0.3-0.4
		C9.9,95.6,9.9,95.3,10,94.8C9.9,94.8,10,94.8,10,94.8z"/>
	<path d="M11.6,82.3C11.7,82.3,11.7,82.3,11.6,82.3l-0.2,2.1c0,0.1-0.1,0.3-0.2,0.4c-0.1,0.1-0.3,0.3-0.7,0.5s-1.1,0.6-2.1,1.1
		c-0.8,0.4-1.4,0.7-1.7,0.9c-0.3,0.2-0.5,0.4-0.7,0.6s-0.3,0.5-0.3,0.9V89l3.7,0.5c0.3,0,0.6,0,0.7,0s0.3-0.2,0.4-0.3
		c0.1-0.2,0.1-0.5,0.2-0.9c0,0,0,0,0.1,0s0.1,0,0.1,0c0,0.3-0.1,0.6-0.1,0.8l-0.2,1.2l-0.1,1.1c0,0.2,0,0.5-0.1,0.8c0,0,0,0-0.1,0
		s-0.1,0-0.1,0c0.1-0.4,0.1-0.7,0-0.9s-0.1-0.3-0.3-0.4s-0.4-0.2-0.7-0.2l-7.3-1c-0.3,0-0.6,0-0.7,0c-0.2,0-0.3,0.2-0.4,0.3
		c-0.1,0.2-0.2,0.5-0.2,0.9c0,0,0,0-0.1,0s-0.1,0-0.1,0L0.6,90c0.1-0.5,0.1-0.8,0.2-1.1c0-0.3,0.1-0.7,0.1-1.2L1,86.9c0,0,0,0,0.1,0
		s0.1,0,0.1,0c-0.1,0.4-0.1,0.7,0,0.9c0,0.2,0.1,0.3,0.3,0.4c0.1,0.1,0.4,0.2,0.7,0.2l3.3,0.5c0.1-0.6,0.1-0.9,0.1-1.1v-0.3
		l-2.3-2.2c-0.6-0.6-1-0.9-1.3-0.9c-0.2,0-0.3,0-0.4,0.1s-0.1,0.3-0.2,0.6c0,0,0,0-0.1,0s-0.1,0-0.1,0l0.1-0.7
		c0.1-0.4,0.1-0.8,0.2-1.2c0.1-0.4,0.1-0.8,0.1-1.1l0.1-0.6c0,0,0,0,0.1,0s0.1,0,0.1,0.1c-0.1,0.5,0,1.1,0.2,1.5
		c0.2,0.5,0.6,1,1.2,1.6l2.4,2.5c0.1-0.3,0.2-0.5,0.4-0.7c0.2-0.2,0.4-0.4,0.7-0.5s0.8-0.4,1.5-0.8c0.8-0.4,1.4-0.7,1.8-1
		c0.4-0.3,0.7-0.5,1-0.8C11.3,83,11.5,82.7,11.6,82.3C11.5,82.3,11.6,82.3,11.6,82.3z"/>
	<path d="M9.9,76c0.1,0,0.1,0,0.2,0c0.1,0,0.1,0.1,0.2,0.1l1.6,3.4l0,0c0,0,0,0-0.1,0.1h-0.1l-1.9-2.4l-2.9,1.2c0,0,0,0-0.1-0.1
		v-0.1L9.9,76z M10.5,73.5c0.1,0,0.1,0,0.2,0c0.1,0,0.1,0.1,0.2,0.1l1.6,3.4l0,0c0,0,0,0-0.1,0.1h-0.1l-1.9-2.4l-2.9,1.2
		c0,0,0,0-0.1-0.1s0-0.1,0-0.1L10.5,73.5z"/>
	<path d="M14.8,58c0.7-0.4,1.4-0.5,2.3-0.1c0.5,0.2,1,0.6,1.3,1s0.5,1,0.5,1.5c0,0.6-0.1,1.1-0.4,1.7c-0.1,0.3-0.3,0.6-0.5,0.9
		c-0.1,0.1-0.2,0.3-0.3,0.5c-0.1,0.2-0.2,0.4-0.3,0.7l-0.4,1c-0.1,0.2-0.2,0.4-0.3,0.8c0,0,0,0-0.1,0s-0.1-0.1-0.1-0.1
		c0.2-0.4,0.3-0.6,0.3-0.8s0-0.3-0.1-0.5c-0.1-0.1-0.3-0.3-0.6-0.4l-6.7-3.1C9,61.1,8.8,61,8.6,61s-0.3,0.1-0.4,0.2
		c-0.1,0.1-0.3,0.4-0.4,0.7c0,0,0,0-0.1,0s-0.1-0.1-0.1-0.1l2.7-5.8c0-0.1,0.1-0.1,0.1-0.1s0.1,0,0.2,0l2,0.7c0,0,0,0,0,0.1
		s0,0.1-0.1,0.1c-0.6-0.2-1.2-0.2-1.7,0s-0.8,0.5-1,1l-0.4,0.8c-0.1,0.3-0.2,0.6-0.2,0.7c0,0.2,0,0.3,0.1,0.5
		c0.1,0.1,0.3,0.2,0.6,0.4l2.8,1.3c0.2-0.5,0.3-0.9,0.5-1.2C13.6,59.2,14.2,58.5,14.8,58z M18.3,60.5c-0.2-0.5-0.6-0.9-1.4-1.2
		c-0.9-0.4-1.6-0.5-2.2-0.2c-0.6,0.3-1.1,0.8-1.5,1.7c-0.1,0.2-0.2,0.4-0.3,0.8l3.6,1.6c0.3,0.2,0.6,0.2,0.8,0.1
		c0.2-0.1,0.5-0.4,0.7-0.9C18.4,61.6,18.5,61,18.3,60.5z"/>
	<path d="M22.9,49.1C22.9,49,23,49,22.9,49.1c0.6,0.4,1.2,0.8,1.9,1.2c0.1,0,0.1,0.1,0.1,0.1c0,0.1,0,0.1-0.1,0.2l-3.5,5.8
		c0,0,0,0-0.1,0s-0.1-0.1-0.1-0.1c0.2-0.3,0.3-0.6,0.4-0.8s0-0.3-0.1-0.5c-0.1-0.1-0.3-0.3-0.6-0.5l-6.3-3.9
		c-0.3-0.2-0.5-0.3-0.7-0.3s-0.3,0-0.5,0.2c-0.1,0.1-0.3,0.4-0.5,0.7c0,0,0,0-0.1,0s-0.1-0.1-0.1-0.1l3.4-5.6c0-0.1,0.1-0.1,0.2,0
		l1.7,1v0.1c0,0.1-0.1,0.1-0.1,0.1c-0.5-0.2-1-0.3-1.4-0.2s-0.8,0.4-1.1,0.9L15,48.2c-0.3,0.4-0.4,0.8-0.3,1s0.2,0.4,0.6,0.6
		l2.8,1.7l1-1.6c0.3-0.5,0.4-0.8,0.4-1.1s-0.2-0.6-0.6-0.8c0,0,0,0,0-0.1s0.1-0.1,0.1-0.1l1.1,0.7c0.3,0.2,0.5,0.3,0.6,0.4l0.7,0.4
		c0,0,0,0,0,0.1s-0.1,0.1-0.1,0.1c-0.4-0.2-0.8-0.3-1.1-0.2c-0.3,0.1-0.6,0.4-0.9,0.9l-0.9,1.6l3.1,1.9c0.2,0.1,0.4,0.2,0.6,0.2
		s0.3,0,0.4-0.1s0.3-0.3,0.5-0.6l0.6-1c0.3-0.5,0.4-1,0.3-1.5s-0.4-1-0.9-1.4C22.9,49.2,22.9,49.1,22.9,49.1z"/>
	<path d="M23.6,35.5c0.4-0.4,0.8-0.6,1.1-0.7c0.1,0,0.2,0,0.2,0c0.1,0,0.1,0,0.2,0.1l1.6,1V36l-0.1,0.1c-0.8-0.3-1.6-0.3-2.3-0.1
		c-0.7,0.2-1.4,0.7-1.9,1.4c-0.5,0.6-0.8,1.3-0.9,2s0,1.4,0.3,2c0.3,0.7,0.8,1.3,1.5,1.8c0.8,0.6,1.6,1,2.5,1.2s1.8,0.2,2.6,0
		c0.8-0.2,1.5-0.6,2-1.3c0.5-0.6,0.7-1.2,0.7-2c0-0.7-0.2-1.5-0.7-2.3c0,0,0,0,0-0.1c0,0,0,0,0.1-0.1c0,0,0,0,0.1,0l1.3,1.3
		C32,40,32,40.1,32,40.1s0,0.1,0,0.2c-0.3,1-0.8,1.9-1.4,2.7c-0.8,1-1.7,1.7-2.6,2c-0.9,0.4-1.9,0.4-2.7,0.3s-1.7-0.5-2.4-1.1
		c-0.8-0.6-1.3-1.4-1.6-2.3C21,41,21,40,21.2,39.1c0.2-1,0.7-1.9,1.3-2.7C22.8,36.3,23.2,35.9,23.6,35.5z"/>
	<path d="M42.3,30.7C42.3,30.8,42.3,30.8,42.3,30.7c-0.2,0.3-0.4,0.5-0.6,0.6L40.9,32L40,32.9c-0.1,0.1-0.3,0.3-0.6,0.6
		c0,0,0,0-0.1,0c0,0-0.1-0.1,0-0.1c0.3-0.3,0.5-0.5,0.6-0.7s0.1-0.3,0.1-0.5c-0.1-0.2-0.2-0.4-0.4-0.6l-5-5.3
		c-0.2-0.3-0.4-0.4-0.5-0.5s-0.2-0.1-0.3,0s-0.3,0.3-0.7,0.6l-2.4,2.3c-0.3,0.3-0.5,0.5-0.6,0.7C30,29.5,30,29.7,30,29.8
		c0.1,0.1,0.2,0.3,0.4,0.6l5,5.3c0.2,0.2,0.4,0.4,0.6,0.5c0.1,0.1,0.3,0.1,0.5,0s0.4-0.3,0.7-0.6c0,0,0,0,0.1,0c0,0,0.1,0.1,0,0.1
		c-0.2,0.2-0.5,0.4-0.6,0.6l-0.9,0.8L35,37.7c-0.1,0.1-0.3,0.3-0.6,0.6c0,0,0,0-0.1,0c0,0-0.1-0.1,0-0.1c0.3-0.3,0.5-0.5,0.6-0.7
		S35,37.2,35,37c-0.1-0.2-0.2-0.4-0.4-0.6l-5-5.2c-0.2-0.2-0.4-0.4-0.6-0.5s-0.4-0.1-0.6,0s-0.4,0.2-0.7,0.5c0,0,0,0-0.1,0
		c0,0-0.1-0.1,0-0.1c0.3-0.2,0.5-0.5,0.8-0.7c1-1,2.1-2,3.2-3c1-0.9,2.1-2,3.5-3.3l0.4-0.4c0,0,0,0,0.1,0c0,0,0.1,0.1,0,0.1
		c-0.3,0.3-0.5,0.5-0.5,0.7c-0.1,0.2-0.1,0.4,0,0.6s0.2,0.4,0.5,0.6l5,5.2c0.2,0.2,0.4,0.4,0.6,0.4c0.2,0.1,0.3,0.1,0.5,0
		C41.7,31.1,41.9,30.9,42.3,30.7C42.2,30.7,42.2,30.7,42.3,30.7z"/>
	<path d="M53.2,22.9c0,0.1,0,0.1,0,0.1c-0.2,0.1-0.4,0.3-0.8,0.5c-0.4,0.2-0.6,0.4-0.8,0.5s-0.4,0.3-0.7,0.6
		c-0.3,0.2-0.5,0.4-0.6,0.5h-0.1c0-0.1,0-0.1,0-0.1c0.3-0.2,0.5-0.4,0.6-0.6s0.1-0.3,0-0.5c-0.1-0.1-0.3-0.3-0.6-0.5l-6.9-3.9
		l1.4,6.8c0.1,0.3,0.2,0.6,0.3,0.8c0.4,0.6,1,0.5,1.9-0.1H47c0,0.1,0,0.1,0,0.1c-0.2,0.1-0.4,0.3-0.7,0.5s-0.6,0.4-0.9,0.6
		c-0.2,0.2-0.5,0.3-0.8,0.6c-0.3,0.2-0.5,0.4-0.7,0.5h-0.1c0-0.1,0-0.1,0-0.1c0.2-0.2,0.4-0.4,0.5-0.6s0.2-0.5,0.2-0.8
		s-0.1-0.8-0.2-1.4L42.6,18c0,0,0-0.1,0.1-0.1s0.1,0,0.1,0l7.7,4.3c0.7,0.4,1.3,0.7,1.7,0.8c0.4,0.1,0.7,0,1-0.2
		C53.1,22.8,53.2,22.8,53.2,22.9z"/>
	<path d="M64.7,17c0,0.1,0,0.1,0,0.1c-0.2,0.1-0.5,0.2-0.9,0.4c-0.4,0.2-0.7,0.3-0.9,0.4s-0.5,0.3-0.8,0.4c-0.3,0.2-0.5,0.3-0.7,0.4
		c0,0-0.1,0-0.1-0.1s0-0.1,0-0.1c0.3-0.2,0.6-0.3,0.7-0.5c0.1-0.1,0.1-0.3,0.1-0.4c-0.1-0.1-0.2-0.3-0.5-0.5l-2.5-2l-3.4,1.7
		l0.1,2.4c0,0.3,0.1,0.6,0.2,0.9c0.3,0.6,0.9,0.7,1.8,0.2h0.1c0,0.1,0,0.1,0,0.1c-0.2,0.1-0.4,0.2-0.8,0.3c-0.4,0.2-0.7,0.3-1,0.4
		c-0.2,0.1-0.5,0.3-0.9,0.5c-0.3,0.2-0.5,0.3-0.7,0.4h-0.1c0-0.1,0-0.1,0-0.1c0.3-0.1,0.5-0.3,0.6-0.5s0.2-0.5,0.3-0.8
		c0-0.3,0-0.8,0-1.4l-0.5-8.6c0,0,0-0.1,0.1-0.1s0.1,0,0.1,0l7,5.4c0.7,0.5,1.2,0.9,1.5,1c0.4,0.1,0.7,0.1,1,0
		C64.6,16.9,64.7,16.9,64.7,17z M55.6,16.5l3.2-1.6l-3.4-2.6L55.6,16.5z"/>
	<path d="M63.6,7.8c-0.2,0.5-0.3,1.1-0.2,1.9c0,0,0,0.1-0.1,0.1s-0.1,0-0.1,0C63.1,9.5,63,9,62.9,8.4S62.6,7.3,62.5,7
		c0,0,0-0.1,0.1-0.1s0.1,0,0.1,0c0.1,0.2,0.4,0.2,0.9,0c0.9-0.3,1.9-0.6,3.1-1c0.6-0.2,1.2-0.4,1.9-0.7l1-0.4
		c0.4-0.1,0.6-0.2,0.8-0.4c0.2-0.1,0.2-0.3,0.2-0.4c0,0,0-0.1,0.1-0.1s0.1,0,0.1,0c0.1,0.3,0.2,0.8,0.4,1.4c0.2,0.6,0.3,1.1,0.5,1.5
		c0,0,0,0-0.1,0.1c-0.1,0-0.1,0-0.1,0c-0.3-0.8-0.7-1.2-1.1-1.5c-0.4-0.2-1-0.2-1.7,0c-0.4,0.1-0.7,0.3-0.9,0.4
		c-0.2,0.1-0.3,0.2-0.3,0.4c0,0.2,0,0.4,0.1,0.7l2.5,7c0.1,0.3,0.2,0.5,0.3,0.6c0.1,0.1,0.3,0.2,0.5,0.1c0.2,0,0.5-0.1,1-0.3
		c0,0,0,0,0.1,0.1c0,0.1,0,0.1,0,0.1c-0.3,0.1-0.6,0.2-0.8,0.3L70,15.2l-1.1,0.4c-0.2,0.1-0.5,0.2-0.8,0.3c0,0,0,0-0.1-0.1
		c0-0.1,0-0.1,0-0.1c0.4-0.1,0.7-0.3,0.9-0.4c0.2-0.1,0.3-0.3,0.3-0.4c0-0.2,0-0.4-0.1-0.7l-2.5-7c-0.1-0.3-0.2-0.5-0.3-0.6
		c-0.1-0.1-0.3-0.1-0.5-0.1s-0.5,0.1-0.9,0.3C64.2,7,63.8,7.3,63.6,7.8z"/>
	<path d="M87.8,10.6c0,0.1,0,0.1,0,0.1c-0.3,0.1-0.6,0.1-0.8,0.1L85.9,11l-1.2,0.3c-0.2,0-0.4,0.1-0.7,0.2c0,0-0.1,0-0.1-0.1
		s0-0.1,0-0.1c0.4-0.1,0.7-0.2,0.9-0.3c0.2-0.1,0.3-0.2,0.3-0.4s0-0.4,0-0.7l-0.7-3.7l-5.9,1.2l0.7,3.7c0.1,0.3,0.1,0.5,0.2,0.7
		c0.1,0.1,0.2,0.2,0.4,0.2c0.2,0,0.5,0,0.9-0.1c0,0,0,0,0,0.1s0,0.1,0,0.1c-0.3,0.1-0.6,0.1-0.8,0.1l-1.2,0.2l-1.1,0.2
		c-0.2,0-0.5,0.1-0.8,0.2c0,0,0,0,0-0.1s0-0.1,0-0.1c0.4-0.1,0.7-0.2,0.9-0.3c0.2-0.1,0.3-0.2,0.3-0.4s0-0.4,0-0.7l-1.4-7.3
		c-0.1-0.3-0.1-0.5-0.2-0.7s-0.4,0-0.6,0s-0.5,0-0.9,0.1c0,0,0,0-0.1-0.1c0-0.1,0-0.1,0-0.1L75.7,3c0.4-0.1,0.8-0.1,1.1-0.2
		c0.3-0.1,0.7-0.2,1.2-0.3l0.8-0.2c0,0,0,0,0,0.1s0,0.1,0,0.1c-0.4,0.1-0.7,0.2-0.9,0.3c-0.2,0.1-0.3,0.2-0.3,0.4s0,0.4,0,0.7
		l0.6,3.2l6-1.1l-0.6-3.2c-0.1-0.3-0.1-0.5-0.2-0.7c-0.1-0.1-0.2-0.2-0.5-0.2c-0.2,0-0.5,0-0.9,0.1c0,0-0.1,0-0.1-0.1s0-0.1,0-0.1
		l0.7-0.1c0.5-0.1,0.9-0.1,1.2-0.2c0.3-0.1,0.7-0.1,1.1-0.3L85.7,1c0,0,0.1,0,0.1,0.1s0,0.1,0,0.1c-0.4,0.1-0.7,0.2-0.9,0.3
		c-0.2,0.1-0.3,0.2-0.3,0.4s0,0.4,0,0.7L86,9.9c0.1,0.3,0.1,0.5,0.2,0.7c0.1,0.1,0.2,0.2,0.4,0.2C87,10.7,87.3,10.6,87.8,10.6
		C87.7,10.6,87.8,10.6,87.8,10.6z"/>
	<path d="M93,9.8c-0.8-0.4-1.4-1-1.9-1.8s-0.7-1.6-0.7-2.6c0-1.1,0.2-2.1,0.7-2.9s1.2-1.4,2.1-1.9C94,0.3,94.9,0,95.8,0
		c1,0,1.9,0.2,2.7,0.6c0.8,0.4,1.4,1,1.9,1.8c0.4,0.8,0.7,1.6,0.7,2.5c0,1-0.2,1.9-0.7,2.7s-1.1,1.5-2,2c-0.8,0.5-1.8,0.8-2.8,0.8
		C94.7,10.4,93.8,10.2,93,9.8z M98.2,9.4c0.5-0.4,1-0.9,1.3-1.6s0.4-1.5,0.4-2.4c0-1-0.3-1.9-0.7-2.6c-0.4-0.8-1-1.4-1.7-1.8
		S96,0.4,95.2,0.4c-1.1,0-2,0.5-2.6,1.2c-0.6,0.8-0.9,1.8-0.8,3.2c0,1,0.3,1.9,0.7,2.7S93.3,9,94,9.4s1.4,0.7,2.3,0.6
		C97,10,97.6,9.8,98.2,9.4z"/>
</g>
</svg>
